<svg width="46" height="60" version="1.1" viewBox="0 0 218.77 507.04" xmlns="http://www.w3.org/2000/svg">
 <g transform="translate(-133.22 8.1826)" stroke="#fff" stroke-width="16.368" fill="#1e98ff">
  <path d="m242.61 0c-100.48 0-181.96 81.473-181.96 181.96 0 40.928 13.504 78.659 36.31 109.08l145.65 194.18 145.64-194.18c22.808-30.416 36.31-68.146 36.31-109.08 0-100.48-81.473-181.96-181.96-181.96z" stroke="#f6fbff" stroke-width="16.368" fill="#1e98ff"/>
 </g>
 <ellipse cx="109.23" cy="190.92" rx="121.94" ry="122.25" fill="#f6fbff" stroke-width="1.6182"/>
 <g transform="matrix(.24282 0 0 .24282 13.099 94.788)" fill="#0085f6">
  <path d="m395.9 475.02-236.2-72.7v121.42c0 56.133 105.79 101.64 236.27 101.64s236.28-45.511 236.28-101.64c0-0.442-0.145-0.886-0.154-1.318v-120.1l-236.2 72.7z" fill="#0085f6"/>
  <path d="m0 318.73 84.383 30.185 7.191-15.401 31-2.635 4.42 4.599-26.601 6.308-3.877 11.475c-7e-3 0-60.087 125.6-51.263 187.05 0 0 37.502 22.37 74.988 0l9.962-168v-13.984l55.8-12.588-3.941 9.705-41.604 13.529 19.242 6.874 236.2 72.7 236.2-72.7 159.7-57.116-395.9-152.31-395.9 152.31z" fill="#0085f6"/>
 </g>
</svg>
