<svg width="46" height="60" version="1.1" viewBox="0 0 218.77 507.04" xmlns="http://www.w3.org/2000/svg">
 <g transform="translate(-133.22 8.1826)" stroke="#fff" stroke-width="16.368" fill="#d40000">
  <path d="m242.61 0c-100.48 0-181.96 81.473-181.96 181.96 0 40.928 13.504 78.659 36.31 109.08l145.65 194.18 145.64-194.18c22.808-30.416 36.31-68.146 36.31-109.08 0-100.48-81.473-181.96-181.96-181.96z" stroke="#fff" stroke-width="16.368" fill="#d40000"/>
 </g>
 <ellipse cx="109.23" cy="190.92" rx="121.94" ry="122.25" fill="#ad0000" stroke-width="1.6182"/>
 <g transform="matrix(.95833 0 0 .95833 -66.282 15.646)" stroke-width=".3711" fill="#ffd4d4">
  <path d="m88.14 132.03v94.233l65.017-43.129z" fill="#ffd4d4"/>
  <path d="m191.16 186.23 79.986-62.716h-175.81l79.794 62.716c4.7186 3.7014 11.311 3.7014 16.03 0z" fill="#ffd4d4"/>
  <path d="m213.14 183.14 65.001 43.162v-94.129z" fill="#ffd4d4"/>
  <path d="m198.03 195c-4.3808 3.4354-9.6341 5.1551-14.884 5.1551-5.2517 0-10.502-1.7179-14.886-5.1551l-5.8797-4.6229-74.235 49.245v2.6542h190v-2.6005l-74.227-49.289z" fill="#ffd4d4"/>
 </g>
</svg>
