<svg width="60" height="60" version="1.1" viewBox="0 0 12.964 12.964" xmlns="http://www.w3.org/2000/svg">
 <circle cx="6.4821" cy="6.4821" r="6.35" fill="#263545" stroke="#cccccc" stroke-width=".26425"></circle>
 <path d="m10.399 9.9803v-5.07l-2.7641-0.79488v5.8649h-0.20051v-7.3687h-3.1867v7.3759h-0.18619v-3.0292h-1.7258v3.0292h-0.00716v0.36521h8.3068v-0.36521zm-1.2246-4.6905h0.79489v0.88798h-0.79489zm0 1.1243h0.79489v0.88797h-0.79489zm0 1.2174h0.79489v0.88797h-0.79489zm0 1.2174h0.79489v0.88797h-0.79489zm-1.2174-3.559h0.79488v0.88798h-0.79488zm0 1.1243h0.79488v0.88797h-0.79488zm0 1.2174h0.79488v0.88797h-0.79488zm0 1.2174h0.79488v0.88797h-0.79488zm-4.6476-1.6113h0.5156v0.53707h-0.5156zm0 1.0384h0.5156v0.53707h-0.5156zm0 1.0168h0.5156v0.53709h-0.5156zm-0.73759-2.0409h0.5156v0.53708h-0.5156zm0 1.0312h0.5156v0.53708h-0.5156zm0 1.0168h0.5156v0.53709h-0.5156zm3.5519-6.1084h0.79488v0.79488h-0.79488zm0 1.5898h0.79488v0.79488h-0.79488zm0 1.6184h0.79488v0.79488h-0.79488zm-1.3678-3.2082h0.79488v0.79488h-0.79488zm0 1.5898h0.79488v0.79488h-0.79488zm0 1.6184h0.79488v0.79488h-0.79488zm0.27928 1.3892h1.5898v2.1984h-0.39386v-1.8547h-0.80204v1.8476h-0.40102z" fill="#cccccc" stroke-width=".071611"/>
</svg>
