<svg width="60" height="60" version="1.1" viewBox="0 0 12.964 12.964" xmlns="http://www.w3.org/2000/svg">
 <circle cx="6.482" cy="6.482" r="6.35" fill="#fff" stroke="#1e98ff" stroke-width=".26407"></circle>
 <path d="m12.029 7.4855-1.0261-1.004 1.0261-1.004c0.14886-0.13883 0.1984-0.31233 0.14886-0.52055-0.05947-0.20327-0.18835-0.32968-0.38678-0.37924l-1.3981-0.357 0.39417-1.3832c0.05936-0.20319 0.01247-0.37682-0.14135-0.52055-0.1437-0.15373-0.31725-0.20083-0.52058-0.14134l-1.383 0.39417-0.35708-1.3981c-0.049568-0.20333-0.17579-0.32971-0.37901-0.37927-0.20343-0.054595-0.3769-0.0073974-0.52058 0.14128l-1.004 1.0337-1.004-1.0337c-0.14378-0.15368-0.31728-0.20077-0.52055-0.14128-0.20327 0.049568-0.32968 0.17595-0.37924 0.37927l-0.357 1.3981-1.3832-0.39417c-0.20327-0.059518-0.37678-0.012398-0.52055 0.14134-0.1537 0.14373-0.20083 0.31723-0.14128 0.52055l0.39412 1.3832-1.3981 0.357c-0.1983 0.049568-0.32723 0.17595-0.38667 0.37924-0.049646 0.20822 0 0.38172 0.14871 0.52055l1.0262 1.004-1.0262 1.004c-0.14871 0.13878-0.19827 0.31233-0.14871 0.52045 0.05944 0.20333 0.18837 0.32971 0.38667 0.3793l1.3981 0.3569-0.39412 1.3832c-0.059544 0.20325-0.012425 0.3767 0.14128 0.52055 0.14378 0.15365 0.31728 0.20065 0.52055 0.1412l1.3832-0.39399 0.357 1.3981c0.049568 0.20325 0.17595 0.33213 0.37924 0.3866 0.20822 0.04955 0.38174 0 0.52055-0.14868l1.004-1.0263 1.004 1.0263c0.099135 0.10895 0.22551 0.16348 0.37912 0.16348 0.034852 0 0.081841-0.0049 0.14149-0.01477 0.20322-0.05954 0.32953-0.18842 0.37909-0.38669l0.3569-1.398 1.3831 0.39409c0.20335 0.05934 0.3769 0.01229 0.52058-0.14138 0.15373-0.14386 0.20083-0.31733 0.14135-0.52055l-0.39406-1.3832 1.398-0.35682c0.1985-0.049541 0.32728-0.17605 0.38678-0.37927 0.04957-0.2082 0-0.38174-0.14894-0.52055z" fill="#1e98ff" stroke-width=".026047"/>
 <g transform="matrix(.022991 0 0 .022991 3.0843 3.0848)" fill="#fff">
  <path d="m147.76 44.074c12.801 0 23.858-8.162 27.83-20.169-7.578 2.086-17.237 3.345-27.83 3.345-10.592 0-20.251-1.259-27.828-3.345 3.97 12.006 15.026 20.169 27.828 20.169z"/>
  <path d="m295.16 58.839c-0.608-1.706-1.873-3.109-3.521-3.873l-56.343-26.01c-11.985-4.06-24.195-7.267-36.524-9.611-0.434-0.085-0.866-0.126-1.292-0.126-3.052 0-5.785 2.107-6.465 5.197-4.502 19.82-22.047 34.659-43.251 34.659-21.203 0-38.749-14.838-43.25-34.659-0.688-3.09-3.416-5.197-6.466-5.197-0.426 0-0.858 0.041-1.292 0.126-12.328 2.344-24.538 5.551-36.542 9.611l-56.323 26.009c-1.658 0.764-2.932 2.167-3.511 3.873-0.599 1.726-0.491 3.589 0.353 5.217l24.46 48.272c1.145 2.291 3.474 3.666 5.938 3.666 0.636 0 1.281-0.092 1.917-0.283l27.167-8.052v161.97c0 3.678 3.001 6.678 6.689 6.678h161.72c3.678 0 6.67-3.001 6.67-6.678v-161.97l27.186 8.052c0.636 0.191 1.28 0.283 1.915 0.283 2.459 0 4.779-1.375 5.94-3.666l24.469-48.272c0.824-1.629 0.942-3.492 0.353-5.218z"/>
 </g>
</svg>
