<svg width="60" height="60" version="1.1" viewBox="0 0 12.964 12.964" xmlns="http://www.w3.org/2000/svg">
 <circle cx="6.482" cy="6.482" r="6.35" fill="#fff" stroke="#1e98ff" stroke-width=".26407"></circle>
 <path d="m4.6722 2.4603c-1.2199 0-2.2119 0.99203-2.2119 2.2119v0.20108h0.80434v-0.20108c0-0.79095 0.61665-1.4076 1.4076-1.4076 0.64544 0 1.1718 0.41194 1.3448 0.99288-0.056104-0.029199-0.11608-0.052671-0.17595-0.075407-0.042721-0.016721-0.081323-0.037025-0.12568-0.050272-0.016705-0.00485-0.033347-0.00823-0.050271-0.012569-0.12414-0.032668-0.25569-0.05027-0.3896-0.05027-0.53621 0-1.0233 0.26684-1.3322 0.67866l0.65352 0.49016c0.17374-0.23165 0.41053-0.36446 0.67866-0.36446 0.47866 0 0.80434 0.32568 0.80434 0.80434v0.40217h0.80434v-0.40217c0-0.47866 0.32568-0.80434 0.80434-0.80434 0.20108 0 0.38795 0.078572 0.54043 0.21365 0.050845 0.045025 0.094812 0.092897 0.13825 0.15081l0.65352-0.49016c-0.30886-0.41182-0.79598-0.67866-1.3322-0.67866-0.10215 0-0.20494 0.00565-0.30163 0.025135-0.030629 0.00573-0.057989 0.017734-0.087978 0.025132-0.026389 0.00698-0.049536 0.016916-0.0754 0.025135-0.077847 0.023375-0.15381 0.053697-0.22622 0.087975-0.016587 0.00799-0.034002 0.016662-0.050267 0.025134 0.17291-0.58093 0.6993-0.99287 1.3448-0.99287 0.79095 0 1.4076 0.61665 1.4076 1.4076v0.20108h0.80434v-0.20108c0-1.2199-0.99203-2.2119-2.2119-2.2119-0.74916 0-1.3989 0.38258-1.7972 0.95515-0.3997-0.57578-1.0697-0.95515-1.8223-0.95515zm-0.60325 4.0217v0.80434h0.50271c0.2566 0.58061 1.002 1.2065 1.9103 1.2065 0.90834 0 1.6537-0.62589 1.9103-1.2065h0.50271v-0.80434zm1.6087 2.413v0.40218h-3.2174l0.20108 0.64097c0.12065 0.32174 0.40466 0.56553 0.76661 0.56553h6.1081c0.36195 0 0.64597-0.24382 0.76661-0.56553l0.20109-0.64097h-3.2174v-0.40218h-1.6087z" fill="#1e98ff" stroke-width=".40217"/>
</svg>
