<svg width="60px" height="60px" version="1.1" viewBox="0 0 455 455" xmlns="http://www.w3.org/2000/svg">
	<path d="m229.58 237c21.778 0 39.497-17.719 39.497-39.497s-17.718-39.496-39.497-39.496-39.497 17.718-39.497 39.496 17.719 39.497 39.497 39.497z"/>
	<path d="m328.35 425-24.186-66.452c28.618-13.306 53.119-34.017 71.029-59.661l17.932 10.353 15-25.98-17.89-10.329c10.799-22.907 16.85-48.474 16.85-75.431s-6.051-52.524-16.85-75.431l17.89-10.329-15-25.98-17.932 10.353c-29.415-42.117-76.608-70.932-130.61-75.473v-20.64h-30v20.64c-54 4.541-101.19 33.356-130.61 75.473l-17.932-10.353-15 25.98 17.89 10.329c-10.799 22.906-16.85 48.473-16.85 75.431s6.051 52.524 16.85 75.431l-17.89 10.329 15 25.98 17.932-10.353c17.91 25.644 42.411 46.355 71.029 59.661l-24.186 66.452h-130.82v30h455v-30h-126.65zm-218.29-141.17 68.289-39.426c-6.756-7.374-11.943-16.205-15.033-25.961l-68.303 39.434c-8.304-18.438-12.931-38.875-12.931-60.374s4.626-41.936 12.93-60.373l68.303 39.435c3.09-9.757 8.277-18.587 15.033-25.961l-68.289-39.427c24.058-33.216 61.596-56.06 104.52-60.416v78.895c4.834-1.068 9.849-1.648 15-1.648s10.166 0.581 15 1.648v-78.895c42.927 4.355 80.465 27.2 104.52 60.416l-68.288 39.426c6.756 7.374 11.943 16.205 15.033 25.961l68.303-39.435c8.304 18.438 12.93 38.875 12.93 60.373s-4.626 41.936-12.931 60.374l-68.303-39.434c-3.09 9.757-8.277 18.587-15.033 25.961l68.289 39.426c-14.248 19.671-33.221 35.705-55.247 46.414l-26.985-74.142c-8.355 5.336-17.917 8.931-28.182 10.282l26.986 74.145c-11.555 2.918-23.645 4.475-36.094 4.475s-24.539-1.557-36.094-4.475l26.986-74.145c-10.265-1.351-19.827-4.945-28.182-10.281l-26.985 74.142c-22.026-10.708-41-26.742-55.248-46.414zm52.683 141.17 20.442-56.165c10.138 2.749 20.632 4.62 31.398 5.525v20.64h30v-20.64c10.766-0.905 21.26-2.776 31.398-5.525l20.443 56.165h-133.68z"/>
</svg>
