<svg width="60px" height="60px" version="1.1" viewBox="0 0 431.79 431.79" xmlns="http://www.w3.org/2000/svg">
<path d="m422.44 151.93h-31.668c-2.412 0-4.73 0.932-6.471 2.6l-6.76 6.476c-11.395-26.366-27.742-52.439-49.822-79.432-11.936-14.585-29.586-22.949-48.43-22.949h-126.79c-18.846 0-36.497 8.365-48.426 22.95-22.777 27.842-38.799 53.287-49.924 79.338l-6.66-6.383c-1.741-1.668-4.06-2.6-6.472-2.6h-31.666c-5.166 0-9.353 4.187-9.353 9.353v21.651c0 4.937 3.838 9.022 8.765 9.334l32.549 2.05c-4.918 14.371-8.758 35.786-8.758 65.987 0 26.205 5.234 43.428 14.343 54.578v50.449c0 4.326 3.507 7.832 7.833 7.832h36.029c4.328 0 7.836-3.506 7.836-7.832v-31.328h234.6v31.328c0 4.326 3.508 7.832 7.834 7.832h36.029c4.326 0 7.834-3.506 7.834-7.832v-50.449c9.107-11.15 14.344-28.373 14.344-54.578 0-30.201-3.84-51.616-8.758-65.987l32.549-2.05c4.926-0.312 8.764-4.397 8.764-9.334v-21.651c0-5.166-4.185-9.353-9.351-9.353zm-291.63-48.488c5.346-6.534 13.254-10.283 21.695-10.283h126.79c8.441 0 16.352 3.749 21.697 10.283 15.447 18.883 27.646 36.954 37.074 54.955l-244.54 0.046c9.222-17.601 21.49-35.687 37.291-55.001zm-26.649 192.25c-17.933 0-32.469-5.857-32.469-20.066 0-14.208 5.274-25.729 23.206-25.729s41.73 11.521 41.73 25.729-14.537 20.066-32.467 20.066zm145.77-2.961h-68.069c-10.262 0-18.61-8.348-18.61-18.609 0-2.878 2.334-5.212 5.214-5.212h94.863c2.879 0 5.211 2.334 5.211 5.212 0 10.262-8.348 18.609-18.609 18.609zm77.703 2.961c-17.932 0-32.469-5.857-32.469-20.066 0-14.208 23.801-25.729 41.73-25.729 17.932 0 23.207 11.521 23.207 25.729s-14.535 20.066-32.468 20.066z"/>
</svg>
