<svg width="60px" height="60px" version="1.1" viewBox="0 0 512 512" xmlns="http://www.w3.org/2000/svg">
<path d="m182.87 271.23 37.106-19.528-37.106-19.529 22.37-35.466-41.899 1.64 1.64-41.899-35.466 22.37-19.529-37.106-19.529 37.106-35.466-22.37 1.64 41.899-41.899-1.64 22.37 35.466-37.106 19.529 37.106 19.529-22.37 35.466 41.899-1.64-1.64 41.898 35.466-22.37 19.529 37.107 19.529-37.106 35.466 22.369-1.64-41.899 41.899 1.64-22.37-35.466zm-72.884 35.467c-30.373 0-54.995-24.623-54.995-54.995s24.622-54.995 54.995-54.995 54.995 24.623 54.995 54.995-24.622 54.995-54.995 54.995z"/>
<path d="m460.66 469.41c-10.13 7.123-17.449 12.27-34.037 12.27s-23.908-5.147-34.039-12.27c-11.233-7.898-25.214-17.727-51.29-17.727-26.077 0-40.057 9.83-51.29 17.727-10.13 7.123-17.449 12.27-34.035 12.27s-23.905-5.146-34.035-12.27c-11.233-7.897-25.213-17.727-51.288-17.727-26.077 0-40.056 9.83-51.289 17.727-10.13 7.123-17.449 12.27-34.035 12.27s-23.904-5.146-34.034-12.27c-11.233-7.898-25.212-17.728-51.289-17.728v29.997c16.585 0 23.905 5.146 34.035 12.27 11.233 7.897 25.213 17.727 51.288 17.727 26.077 0 40.056-9.83 51.289-17.727 10.13-7.123 17.449-12.27 34.035-12.27s23.904 5.146 34.034 12.27c11.233 7.897 25.213 17.727 51.288 17.727s40.056-9.829 51.289-17.727c10.13-7.123 17.449-12.27 34.036-12.27s23.907 5.146 34.038 12.27c11.233 7.898 25.214 17.727 51.291 17.727s40.057-9.829 51.29-17.727c10.132-7.122 17.451-12.27 34.039-12.27v-29.997c-26.077 0-40.057 9.829-51.291 17.728z"/>
<path d="m496.46 109.56c-16.495-35.373-44.321-63.173-79.237-79.541l7.072-19.429-28.19-10.262-7.075 19.439c-81.505-21.572-167.75 22.355-197.13 103.09l-6.055 16.637 17.406 3.238c28.129 5.233 55.021 15.021 79.93 29.093l3.502 1.978 4.021-0.039c0.506-5e-3 1.012-7e-3 1.517-7e-3 13.24 0 26.323 1.693 38.96 4.957l-69.894 192.03c-1.768-0.022-3.534-0.054-5.304-0.054-46.345 0-91.86 7.589-135.28 22.556-27.355 9.429-53.538 21.68-78.266 36.555 11.425 4.753 19.843 10.664 26.11 15.07 8.771 6.168 9.688 6.812 16.783 6.812 7.096 0 8.012-0.645 16.78-6.81 12.338-8.675 32.98-23.187 68.544-23.187s56.206 14.514 68.539 23.185c8.771 6.168 9.688 6.812 16.783 6.812 7.096 0 8.012-0.645 16.779-6.81 12.339-8.674 32.981-23.187 68.546-23.187 35.569 0 56.211 14.515 68.545 23.186 8.77 6.166 9.687 6.811 16.784 6.811s8.014-0.645 16.781-6.81c6.269-4.408 14.69-10.32 26.117-15.074-24.728-14.875-50.91-27.126-78.266-36.555-31.909-10.999-64.951-17.996-98.62-20.942l66.728-183.33c12.229 5.838 23.736 13.286 34.189 22.231l3.056 2.615 3.954 0.735c28.129 5.233 55.021 15.021 79.931 29.093l15.416 8.708 6.056-16.638c15.072-41.412 13.117-86.215-5.508-126.16z"/>
</svg>
