<svg width="60px" height="60px" version="1.1" viewBox="0 0 441.23 441.23" xmlns="http://www.w3.org/2000/svg">
<path d="m440.65 132.74c-0.888-2.354-2.721-4.229-5.054-5.171l-39.207-15.818c-2.435-12.666-12.056-22.81-24.436-26.008l-2.115-24.363c-0.309-3.565-2.701-6.608-6.093-7.751-3.391-1.142-7.137-0.167-9.541 2.484l-10.062 11.099-6.22-21.766c-1.072-3.752-4.44-6.386-8.341-6.521-3.924-0.139-7.444 2.258-8.773 5.928l-46.469 128.2s-172.13 8.035-172.2 8.039c-35.296 2.121-68.735-16.765-85.167-48.119-2.309-4.402-7.748-6.102-12.149-3.794-4.403 2.308-6.101 7.747-3.794 12.149 14.69 28.03 40.708 47.75 70.541 54.93-3.097 3.609-9.751 12.554-13.642 26.617-4.231 15.291-5.756 39.667 9.801 70.619l-25.232 34.272c-1.474 2.001-2.054 4.523-1.603 6.968l11.105 60.218c0.787 4.268 4.51 7.367 8.851 7.367h11.312c2.669 0 5.2-1.185 6.911-3.233 1.71-2.05 2.422-4.753 1.944-7.378l-7.032-38.627 74.401-55.853c0.131-0.099-0.126 0.107 0 0 7.114-5.975 12.278-12.556 15.972-19.322 38.777 6.808 91.844 16.02 125.86 21.498l14.986 95.314c0.689 4.377 4.46 7.602 8.891 7.602h9.308c4.971 0 9-4.029 9-9v-96.754c8.449-5.77 11.469-15.42 13.472-24.871 0.063-0.297 20.022-92.416 20.022-92.416 3.762 0.627 7.561 0.956 11.388 0.956 26.356 0 50.492-15.431 62.987-40.271 1.13-2.246 1.268-4.864 0.38-7.219z"/>
</svg>
