<svg width="60px" height="60px" version="1.1" viewBox="0 0 512 512" xmlns="http://www.w3.org/2000/svg">
 <path d="m235.5 276.5c-5.843-5.843-15.368-5.843-21.211 0-5.845 5.845-5.845 15.366 0 21.211 5.86 5.859 15.352 5.859 21.211 0 5.845-5.845 5.845-15.366 0-21.211z"/>
 <path d="m277.92 191.64c-40.944-40.944-107.56-40.93-148.49 0-40.942 40.942-40.942 107.55 0 148.49 39.639 39.639 108.79 39.668 148.49 0 41.054-41.054 41.043-107.45 0-148.49zm-21.21 127.28c-17.549 17.549-46.084 17.549-63.633 0-8.159-8.159-12.129-18.743-12.7-29.443-11.226-0.518-21.744-4.986-29.736-12.979-17.532-17.559-17.605-46.028 0.014-63.647 16.948-16.948 46.597-17.007 63.633 0 7.993 7.993 12.46 18.51 12.979 29.736 10.701 0.571 21.284 4.541 29.443 12.7 17.549 17.549 17.549 46.084 0 63.633z"/>
 <path d="m193.08 234.09v-0.015c-5.916-5.887-15.381-5.845-21.196 0-5.85 5.821-5.907 15.287-0.015 21.211 5.699 5.683 15.528 5.683 21.211 0 5.887-5.916 5.845-15.381 0-21.196z"/>
 <path d="m383.99 128.01c-87.715-87.715-230.48-87.715-318.19 0-87.729 87.729-87.729 230.46 0 318.19 87.742 87.742 230.47 87.722 318.19 0 87.729-87.729 87.729-230.46 0-318.19zm-84.858 233.33c-52.747 52.778-138.17 52.775-190.91 0-52.632-52.631-52.632-138.28 0-190.91 52.676-52.646 138.3-52.617 190.91 0 52.778 52.747 52.775 138.17 0 190.91z"/>
 <path d="m507.61 4.395c-5.859-5.859-15.352-5.86-21.211 0l-81.193 81.191c-5.859 5.859-5.859 15.352 0 21.211s15.352 5.859 21.211 0l81.193-81.191c5.859-5.859 5.859-15.352 0-21.211z"/>
 <path d="m505.5 91.357c-5.859-5.859-15.351-5.859-21.211 0l-41.411 41.396c-5.859 5.859-5.859 15.352 0 21.211s15.352 5.859 21.211 0l41.411-41.396c5.859-5.859 5.859-15.352 0-21.211z"/>
 <path d="m420.64 6.499c-5.859-5.859-15.352-5.859-21.211 0l-41.367 41.367c-5.859 5.859-5.859 15.352 0 21.211s15.351 5.859 21.211 0l41.367-41.367c5.859-5.859 5.859-15.352 0-21.211z"/>
</svg>
