<svg width="60" height="60" version="1.1" viewBox="-.473 -2.786 100 100" xmlns="http://www.w3.org/2000/svg"><path d="m93.75 80.334v-50.8c-23.014 9.118-67.733 9.118-67.733 9.118v42.117h-3.475v11.11h75.984v-8.071l-4.776-3.474zm-62.089 0.432h-3.474v-5.644h3.474v5.644zm0-9.262h-3.474v-5.644h3.474v5.644zm0-9.262h-3.474v-5.642h3.474v5.642zm0-9.263h-3.474v-5.643h3.474v5.643zm5.963 27.787h-3.474v-5.644h3.473v5.644zm0-9.262h-3.474v-5.644h3.473v5.644zm0-9.262h-3.474v-5.642h3.473v5.642zm0-9.263h-3.474v-5.643h3.473v5.643zm5.963 27.787h-3.474v-5.644h3.474v5.644zm0-9.262h-3.474v-5.644h3.474v5.644zm0-9.262h-3.474v-5.642h3.474v5.642zm0-9.263h-3.474v-5.643h3.474v5.643zm5.96 27.787h-3.473v-5.644h3.473v5.644zm0-9.262h-3.473v-5.644h3.473v5.644zm0-9.262h-3.473v-5.642h3.473v5.642zm0-9.263h-3.473v-5.643h3.473v5.643zm5.964 27.787h-3.473v-5.644h3.473v5.644zm0-9.262h-3.473v-5.644h3.473v5.644zm0-9.262h-3.473v-5.642h3.473v5.642zm0-9.263h-3.473v-5.643h3.473v5.643zm5.961 27.787h-3.471v-5.644h3.471v5.644zm0-9.262h-3.471v-5.644h3.471v5.644zm0-9.262h-3.471v-5.642h3.471v5.642zm0-9.263h-3.471v-5.643h3.471v5.643zm5.963 27.787h-3.474v-5.644h3.474v5.644zm0-9.262h-3.474v-5.644h3.474v5.644zm0-9.262h-3.474v-5.642h3.474v5.642zm5.965 18.524h-3.475v-5.644h3.475v5.644zm0-9.262h-3.475v-5.644h3.475v5.644zm0-9.262h-3.475v-5.642h3.475v5.642zm5.962 18.524h-3.474v-5.644h3.474v5.644zm0-9.262h-3.474v-5.644h3.474v5.644zm5.963 9.262h-3.474v-5.644h3.474v5.644z"/><path d="m41.325 15.09-3.021-2.681 1.678-0.762 2.689 1.698 8.559-4.212-8.649-8.118 2.241-1.015 10.796 6.903 1.462-0.681c0.87-0.395 1.706-0.64 2.514-0.738l1.112-0.121c0.824-0.082 1.299 7e-3 1.417 0.269 0.127 0.282-0.113 0.705-0.717 1.271l-0.823 0.758c-0.604 0.543-1.359 1.019-2.253 1.425l-1.438 0.617-1.904 12.688-2.237 1.016-0.419-11.854-8.806 3.669-0.491 3.143-1.677 0.763-0.033-4.038z"/><path d="m5.609 91.879h-2.243l2.244-1.371v-2.243l1.763 1.808v-2.449l2.083 1.282s3.045-24.842 0.801-32.696c0 0-4.247 1.443-4.729 4.167 0 0-1.202-3.686 0.962-6.57 0 0-3.446-1.923-6.491-0.962 0 0 3.273-4.087 6.639-1.976 0 0 1.096-5.038 3.058-6.038 0 0-0.882 2.645 0.561 4.889 0 0 3.202-1.62 7.123-0.597 0 0-1.994 0.677-3.437 3.241 0 0 1.603 3.205 1.764 5.128 0 0-2.645-1.603-4.087-1.603 0 0 1.202 1.122 0.08 32.535l2.164-1.121-0.241 2.564 2.885-0.962-0.481 2.003 0.962 0.971h-11.38z"/></svg>
