<svg width="60" height="60" version="1.1" viewBox="0 0 512 512" xmlns="http://www.w3.org/2000/svg"><path d="m445.44 31.625v-31.625h-231.52v31.786h-64.195v191.14c37.569 20.426 63.126 60.255 63.126 105.94 0 27.146-17.807 71.454-54.441 135.46-2.912 5.088-5.817 10.072-8.685 14.927v28.848h165.23v-96.819h31.57v96.819h162.06v-476.26l-63.14-0.214zm-162.06 345.7h-31.572v-31.57h31.572v31.57zm0-63.143h-31.572v-31.57h31.572v31.57zm0-61.692h-31.572v-31.57h31.572v31.57zm63.143 124.84h-31.572v-31.57h31.572v31.57zm0-63.143h-31.572v-31.57h31.572v31.57zm0-61.692h-31.572v-31.57h31.572v31.57zm31.571-73.666h-31.57v-36.834h-31.574v36.834h-31.57v-105.24h31.57v36.834h31.574v-36.834h31.57v105.24zm31.573 198.5h-31.572v-31.57h31.572v31.57zm0-63.143h-31.572v-31.57h31.572v31.57zm0-61.692h-31.572v-31.57h31.572v31.57z"/><path d="m92.35 239.94c-49.034 0-88.927 39.893-88.927 88.926 0 11.919 6.518 43.304 50.175 119.6 14.322 25.033 28.767 48.053 38.752 63.533 9.984-15.48 24.43-38.5 38.752-63.533 43.656-76.3 50.175-107.69 50.175-119.6-1e-3 -49.034-39.893-88.926-88.927-88.926zm0 147.54c-32.323 0-58.62-26.297-58.62-58.62s26.296-58.62 58.62-58.62c32.323 0 58.62 26.297 58.62 58.62s-26.297 58.62-58.62 58.62z"/><path d="m92.35 301.81c-14.915 0-27.05 12.134-27.05 27.05s12.134 27.05 27.05 27.05 27.05-12.134 27.05-27.05c0-14.915-12.136-27.05-27.05-27.05z"/></svg>
