<svg width="60px" height="60px" version="1.1" viewBox="0 0 148.51 148.51" xmlns="http://www.w3.org/2000/svg">
<g><g>
<polygon points="25.656 55.841 37.73 55.841 39.542 111.38 24.148 111.38"/>
<polygon points="15.394 114.4 133.12 114.4 133.12 120.74 142.17 120.74 142.17 129.79 148.51 129.79 148.51 136.13 0 136.13 0 129.79 6.338 129.79 6.338 120.74 15.394 120.74"/>
<polygon points="139.15 39.541 74.253 12.375 9.357 39.541 9.357 43.466 139.15 43.466"/>
<rect x="21.732" y="46.484" width="105.04" height="6.035"/>
<polygon points="110.48 55.841 122.55 55.841 124.36 111.38 108.96 111.38"/>
<polygon points="82.102 55.841 94.477 55.841 96.289 111.38 80.592 111.38"/>
<polygon points="54.029 55.841 66.103 55.841 67.914 111.38 52.218 111.38"/>
</g></g>
</svg>
