<svg width="60px" height="60px" version="1.1" viewBox="0 0 303.48 303.48" xmlns="http://www.w3.org/2000/svg">
<path d="m298.6 64.209-49.978 49.979-43.719-15.618-15.617-43.718 49.979-49.979c-32.791-10.97-70.418-3.42-96.529 22.692-25.629 25.629-33.373 62.349-23.281 94.704-1.359 1.07-2.676 2.222-3.93 3.476l-102.64 102.64c-17.178 17.177-17.178 45.027 0 62.205s45.029 17.178 62.207 0l102.64-102.64c1.254-1.254 2.404-2.57 3.475-3.929 32.355 10.092 69.074 2.347 94.703-23.282 26.11-26.112 33.661-63.737 22.69-96.529z"/>
</svg>
