<svg width="60" height="60" version="1.1" viewBox="0 0 12.964 12.964" xmlns="http://www.w3.org/2000/svg">
 <circle cx="6.482" cy="6.482" r="6.35" fill="#862222" stroke="#cccccc" stroke-width=".26407"></circle>
 <path d="m9.6254 5.6236c-0.079311 0-0.15732 0.0054-0.23414 0.014666l-0.48277-1.6526c0.047162-0.054956 0.075811-0.12624 0.075811-0.20432 0-0.1735-0.1407-0.3142-0.3142-0.3142h-1.296c-0.1735 0-0.3142 0.1407-0.3142 0.3142s0.1407 0.3142 0.3142 0.3142h0.82085l-0.33374 0.53122c-0.014733-0.00195-0.029853-0.0029-0.044984-0.00242l-2.8059 0.040643c0.06953-0.057637 0.11383-0.14467 0.11383-0.242 0-0.1735-0.14067-0.3142-0.3142-0.3142h-0.75691c-0.17353 0-0.3142 0.1407-0.3142 0.3142s0.14067 0.3142 0.3142 0.3142h0.05652c0.00744 0.028115 0.018953 0.055675 0.034838 0.081821l0.12619 0.20758-0.34826 0.68709c-0.18428-0.058382-0.38034-0.090085-0.58369-0.090085-1.0678 3.19e-5 -1.9366 0.86876-1.9366 1.9366 0 1.0679 0.86876 1.9366 1.9366 1.9366 0.92218 0 1.6953-0.6481 1.8893-1.5126l1.0362 0.059943c0.00612 3.382e-4 0.012165 5.414e-4 0.018186 5.414e-4 0.10761 0 0.20831-0.055245 0.266-0.14708l1.9443-3.0947 0.29544 1.0113c-0.64973 0.31288-1.0992 0.97792-1.0992 1.746 0 1.0678 0.86876 1.9366 1.9366 1.9366 1.0679 0 1.9366-0.86876 1.9366-1.9366 0-1.0679-0.86879-1.9366-1.9366-1.9366zm-4.9706 0.035128 1.0472 1.7235-0.43737-0.025293c-0.058316-0.55645-0.35335-1.0433-0.78217-1.3582zm-2.6242 1.9015c0-0.72134 0.58686-1.3082 1.3082-1.3082 0.10102 0 0.19927 0.01187 0.29375 0.033685l-0.57401 1.1325c-0.04791 0.094511-0.044958 0.20681 0.00782 0.29868 0.052855 0.091876 0.14843 0.15091 0.25422 0.15704l1.2679 0.073363c-0.16534 0.53301-0.66304 0.92117-1.2497 0.92117-0.72134 0-1.3082-0.58686-1.3082-1.3082zm1.8054-0.28598 0.35674-0.70384c0.22013 0.19019 0.37632 0.45223 0.43177 0.74946zm2.4503-0.14054-1.1196-1.8426 2.2981-0.033336zm3.3393 1.7348c-0.72137 0-1.3082-0.58686-1.3082-1.3082 0-0.48176 0.26195-0.90323 0.65071-1.1302l0.35593 1.2183c0.048698 0.16659 0.22327 0.2622 0.38967 0.2135 0.16659-0.04867 0.26217-0.22314 0.2135-0.38967l-0.35602-1.2187c0.018058-7.617e-4 0.036198-0.00144 0.054459-0.00144 0.72137 0 1.3082 0.58686 1.3082 1.3082s-0.58685 1.3082-1.3082 1.3082z" stroke-width=".03142" fill="#cccccc"/>
</svg>
