<svg width="60" height="60" version="1.1" viewBox="0 0 12.964 12.964" xmlns="http://www.w3.org/2000/svg">
 <circle cx="6.482" cy="6.482" r="6.35" fill="#562b0a" stroke="#cccccc" stroke-width=".26407"></circle>
 <g transform="matrix(.018505 0 0 .018505 2.0362 1.7446)" fill="#cccccc">
  <path d="m385.63 200.11 94.863-33.512-58.852-166.59-95.191 33.629z" fill="#cccccc"/>
  <path d="m81.145 156.98-81.145 28.664 35.801 101.35 81.348-28.734z" fill="#cccccc"/>
  <path d="m303.39 250.28c0-12.355-4.707-23.633-12.414-32.141l61.418-21.695-49.449-139.12-200.16 70.711 49.453 139.11 55.434-19.582c-0.0508 0.89844-0.0781 1.8008-0.0781 2.7109 0 9.1523 2.582 17.707 7.0508 24.988l-87.273 236.73h32.062l18.98-51.484h62.035v51.484h30.086v-51.484h62.273l18.977 51.484h32.066l-87.363-236.97c4.3789-7.2266 6.9062-15.699 6.9062-24.746zm-62.945 180.15h-50.941l49.797-135.07c0.37891 0.13672 0.76172 0.26172 1.1445 0.38672zm81.266 0h-51.18v-134.68c0.45312-0.14844 0.91016-0.29688 1.3594-0.46094z" fill="#cccccc"/>
 </g>
</svg>
