<svg width="60" height="60" version="1.1" viewBox="0 0 12.964 12.964" xmlns="http://www.w3.org/2000/svg">
 <circle cx="6.482" cy="6.482" r="6.35" fill="#590059" stroke="#ff80ff" stroke-width=".26407"></circle>
 <path d="m6.4799 1.8254c-1.3652 0-2.3665 1.1323-2.6966 2.4383l-0.012816 0.050849c-0.43603 1.7229-0.31741 1.6955-0.76191 3.0141-0.00635 0.01905-0.042333 0.13336-0.052916 0.1757-0.11007 0.40428-0.21575 1.2615 0.68171 2.1526 0.33655 0.33443 2.2097 1.4816 2.8426 1.4816 0.63711 0 2.5103-1.1515 2.8426-1.4816 0.91016-0.90381 0.79596-1.757 0.68377-2.1613-0.010583-0.038099-0.046566-0.14797-0.052916-0.16702-0.44449-1.3187-0.33043-1.2912-0.76646-3.0141l-0.012401-0.050849c-0.22225-0.87841-0.72387-1.6955-1.4647-2.1146-0.36406-0.20531-0.78327-0.3237-1.2299-0.3237zm-3.3908 2.9633c-0.46354 0-0.84046 0.37888-0.84046 0.84666 0 0.33866 6.61e-5 1.1494 0.38529 1.5135 0.23283-0.69849 0.29201-0.99072 0.3915-1.4585 0.048683-0.23283 0.10577-0.50566 0.19678-0.89089-0.044449-0.0063499-0.088667-0.010748-0.13312-0.010748zm6.7795 0c-0.044449 0-0.088717 0.0044-0.13105 0.010748 0.088899 0.37888 0.14603 0.64979 0.19471 0.88262 0.099482 0.46778 0.16068 0.76197 0.39563 1.4647 0.38734-0.36406 0.38736-1.1728 0.38736-1.5114 0-0.46778-0.37888-0.84666-0.84666-0.84666zm-4.7054 0.21166c0.20955 0 0.54639 0.12265 0.88717 0.30468 0.15663 0.084666 0.3279 0.12485 0.50146 0.12485 0.18626 0 0.37233-0.048666 0.53743-0.1418 0.3048-0.17145 0.60122-0.28773 0.78961-0.28773 0.51434 0 0.9314 0.41271 0.9314 0.91859 0 0.50799-0.41706 0.92066-0.9314 0.92066-0.082549 0-0.18413 0.00207-0.30055 0.00207-0.052916 0-0.10775-0.00207-0.16702-0.00207 0.45296 0.52281 0.70031 1.3675 0.70031 1.8438 0 0.92497-0.73008 1.3969-1.6296 1.3969-0.027516 0-0.055165 4.9e-5 -0.082681-0.0021-0.86147-0.02752-1.547-0.49738-1.547-1.3948 0-0.46778 0.25798-1.2893 0.69824-1.8417h-0.38736c-0.55879 7.2e-6 -1.0095-0.41266-1.0095-0.92065s0.45075-0.92066 1.0095-0.92066zm-0.15131 0.74082c0.03048 0.127 0.17439 0.61138 0.60936 0.50766 0.26881-0.064134 0.33155-0.21208 0.33155-0.21208s-0.36349-0.28648-0.94091-0.29559zm2.9521 0.00413c-0.57784 0-0.94587 0.2807-0.94587 0.2807s0.060903 0.14867 0.32866 0.21704c0.43328 0.11049 0.58462-0.37137 0.61722-0.49774zm-1.9054 1.5834c-0.054159 0-0.10838 0.020631-0.14965 0.062011-0.082761 0.082761-0.082761 0.21676 0 0.29931 0.082549 0.082761 0.27856 0.14477 0.36132 0.062011 0.082761-0.082761 0.02075-0.27877-0.062011-0.36132-0.04138-0.04138-0.095494-0.062011-0.14965-0.062011zm0.84666 0c-0.054159 0-0.10838 0.020631-0.14965 0.062011-0.082761 0.082549-0.14477 0.27856-0.062011 0.36132 0.082761 0.082761 0.27877 0.020749 0.36132-0.062011 0.082761-0.082549 0.082761-0.21676 0-0.29931-0.04138-0.04138-0.095493-0.062011-0.14965-0.062011zm-1.0583 1.27a0.21169 0.21169 0 1 0 0 0.42333h1.27a0.21169 0.21169 0 1 0 0-0.42333z" fill="#ff80ff" stroke-width=".21166"/>
</svg>
