<svg width="46" height="60" version="1.1" viewBox="0 0 218.77 507.04" xmlns="http://www.w3.org/2000/svg">
 <g transform="translate(-133.22 8.1826)" stroke="#fff" stroke-width="16.368" fill="#d4aa00">
  <path d="m242.61 0c-100.48 0-181.96 81.473-181.96 181.96 0 40.928 13.504 78.659 36.31 109.08l145.65 194.18 145.64-194.18c22.808-30.416 36.31-68.146 36.31-109.08 0-100.48-81.473-181.96-181.96-181.96z" stroke="#fff" stroke-width="16.368" fill="#d4aa00"/>
 </g>
 <ellipse cx="109.23" cy="190.92" rx="121.94" ry="122.25" fill="#ad8b00" stroke-width="1.6182"/>
 <path d="m192.49 141.3-28.333 28.333-24.785-8.8537-8.853-24.784 28.333-28.334c-18.59-6.2186-39.921-1.9387-54.723 12.864-14.529 14.529-18.919 35.345-13.198 53.688-0.77043 0.60714-1.5172 1.2601-2.2281 1.9708l-58.187 58.187c-9.7383 9.7377-9.7383 25.526 0 35.264 9.7382 9.7374 25.527 9.7374 35.265 0l58.187-58.188c0.71087-0.71113 1.3628-1.4571 1.9705-2.2276 18.342 5.7216 39.158 1.331 53.687-13.199 14.802-14.802 19.082-36.132 12.863-54.723z" stroke-width=".5669" fill="#fff6d4"/>
</svg>
