<svg width="60" height="60" version="1.1" viewBox="0 0 12.964 12.964" xmlns="http://www.w3.org/2000/svg">
 <circle cx="6.482" cy="6.482" r="6.35" fill="#fff" stroke="#f371d1" stroke-width=".26407"></circle>
 <path d="m12.029 7.4855-1.0261-1.004 1.0261-1.004c0.14886-0.13883 0.1984-0.31233 0.14886-0.52055-0.05947-0.20327-0.18835-0.32968-0.38678-0.37924l-1.3981-0.357 0.39417-1.3832c0.05936-0.20319 0.01247-0.37682-0.14135-0.52055-0.1437-0.15373-0.31725-0.20083-0.52058-0.14134l-1.383 0.39417-0.35708-1.3981c-0.049568-0.20333-0.17579-0.32971-0.37901-0.37927-0.20343-0.054595-0.3769-0.0073974-0.52058 0.14128l-1.004 1.0337-1.004-1.0337c-0.14378-0.15368-0.31728-0.20077-0.52055-0.14128-0.20327 0.049568-0.32968 0.17595-0.37924 0.37927l-0.357 1.3981-1.3832-0.39417c-0.20327-0.059518-0.37678-0.012398-0.52055 0.14134-0.1537 0.14373-0.20083 0.31723-0.14128 0.52055l0.39412 1.3832-1.3981 0.357c-0.1983 0.049568-0.32723 0.17595-0.38667 0.37924-0.049646 0.20822 0 0.38172 0.14871 0.52055l1.0262 1.004-1.0262 1.004c-0.14871 0.13878-0.19827 0.31233-0.14871 0.52045 0.05944 0.20333 0.18837 0.32971 0.38667 0.3793l1.3981 0.3569-0.39412 1.3832c-0.059544 0.20325-0.012425 0.3767 0.14128 0.52055 0.14378 0.15365 0.31728 0.20065 0.52055 0.1412l1.3832-0.39399 0.357 1.3981c0.049568 0.20325 0.17595 0.33213 0.37924 0.3866 0.20822 0.04955 0.38174 0 0.52055-0.14868l1.004-1.0263 1.004 1.0263c0.099135 0.10895 0.22551 0.16348 0.37912 0.16348 0.034852 0 0.081841-0.0049 0.14149-0.01477 0.20322-0.05954 0.32953-0.18842 0.37909-0.38669l0.3569-1.398 1.3831 0.39409c0.20335 0.05934 0.3769 0.01229 0.52058-0.14138 0.15373-0.14386 0.20083-0.31733 0.14135-0.52055l-0.39406-1.3832 1.398-0.35682c0.1985-0.049541 0.32728-0.17605 0.38678-0.37927 0.04957-0.2082 0-0.38174-0.14894-0.52055z" fill="#f371d1"/>
 <path d="m5.238 3.0952v1.6669c0 0.084676-0.082901 0.16757-0.16757 0.16757-0.084677 0-0.16757-0.082903-0.16757-0.16757v-1.6404c-0.28223 0.028232-0.42334 0.061731-0.42334 0.061731s-0.11465 1.2929-0.11465 2.055c0 0.84667 0.84667 0.85196 0.84667 1.1907 0 0.28223-0.28223 2.0285-0.28223 2.8752 0 0.31045 0.254 0.56445 0.56447 0.56445 0.31045 0 0.56444-0.25401 0.56444-0.56445 0-0.84667-0.28224-2.6-0.28224-2.9104 0-0.31045 0.84668-0.30868 0.84668-1.1554 0-0.47979-0.088194-2.055-0.088194-2.055s-0.13935-0.033504-0.44981-0.061729v1.6669c0 0.084676-0.082905 0.16757-0.16757 0.16757-0.11289 0-0.16757-0.082901-0.16757-0.16757v-1.6933h-0.25576zm3.3602 0c-0.56444 0-1.4111 1.6933-1.4111 3.2457 0 0 0.70557 0.50801 0.70557 0.9878 0 0.8749-0.42334 1.3547-0.42334 1.9756 0 0.31046 0.254 0.56444 0.56447 0.56444 0.31045 0 0.56444-0.25401 0.56444-0.56444z" fill="#fff"/>
</svg>
