<svg width="60" height="60" version="1.1" viewBox="0 0 12.964 12.964" xmlns="http://www.w3.org/2000/svg">
 <circle cx="6.482" cy="6.482" r="6.35" fill="#fff" stroke="#ff931e" stroke-width=".26407"></circle>
 <g transform="matrix(.66236 0 0 .66236 3.6306 3.5651)" fill="#ff931e" stroke-width=".024805">
  <path d="m9.4666 1.0883c-0.086916-0.2291-0.3431-0.34436-0.5722-0.2574l-1.4658 0.55622-1.7554-0.13809s-0.21099-0.00337-2.3543-0.00337l-1.2028-0.14109 0.58301-0.77601c0.086345 0.11609 0.20652 0.18817 0.33953 0.18817 0.067667 0 0.13194-0.018728 0.19023-0.052338v-0.91867c0.051668-0.59516 0.55233-1.0638 1.1607-1.0638 0.64259 0 1.1682 0.52278 1.1682 1.1654v0.81709c0.058266 0.033586 0.12539 0.052338 0.19305 0.052338 0.26281 0 0.47585-0.28121 0.47585-0.6281 0-0.25368-0.114-0.47206-0.27801-0.5712-0.15245-0.72095-0.79353-1.2637-1.5592-1.2637-0.76833 0-1.4113 0.54657-1.5608 1.2713-0.02282 0.014833-0.044525 0.032048-0.065112 0.051321-0.18844-0.095994-0.42409-0.046186-0.5555 0.12869l-1.2651 1.6839c-0.20513 0.27307-0.03681 0.66727 0.30299 0.70711l1.8808 0.22064v1.8533c0.52603 0.15123 1.078 0.45157 1.0375 0.99772h0.28076c-0.044921-0.60548 0.63445-0.90936 1.2281-1.0472v-1.7813l1.785 0.14042c0.065608 0.00514 0.13109-0.00429 0.19219-0.027508l1.5588-0.59154c0.22912-0.086965 0.34434-0.34312 0.25742-0.57219z"/>
  <circle cx="4.3948" cy="-.12056" r=".99623"></circle>
  <path d="m10.191 5.3959h-0.96056c-0.45586 0.51901-1.6063 0.64713-2.2989 0.64713-0.69198 0-1.8428-0.12782-2.2989-0.64713h-0.65541c-0.45586 0.51901-1.6063 0.64713-2.2989 0.64713-0.69198 0-1.8428-0.12782-2.2989-0.64713h-0.96059c-0.10775 0-0.19509 0.087362-0.19509 0.19509v0.47585c0 0.10775 0.087337 0.19509 0.19509 0.19509h0.53769v4.2356c0 0.14156 0.11472 0.25626 0.25628 0.25626h10.184c0.14154 0 0.25628-0.11472 0.25628-0.25626v-4.2356h0.53769c0.10775 0 0.19509-0.087338 0.19509-0.19509v-0.47585h2.5e-5c2.4e-5 -0.10775-0.08731-0.19509-0.19506-0.19509z"/>
  <path d="m1.6782 4.2157c-1.1377 0-2.0599 0.31316-2.0599 0.69949s0.92226 0.69949 2.0599 0.69949c1.1376 0 2.0599-0.31316 2.0599-0.69949 2.48e-5 -0.38633-0.92224-0.69949-2.0599-0.69949zm0 0.97319c-0.44512 0-0.80593-0.12254-0.80593-0.27367 0-0.15116 0.36081-0.27367 0.80593-0.27367 0.4451 0 0.80593 0.12254 0.80593 0.27367s-0.36081 0.27367-0.80593 0.27367z"/>
  <path d="m6.9314 4.2157c-1.1377 0-2.0599 0.31316-2.0599 0.69949 0 0.38631 0.92226 0.69949 2.0599 0.69949 1.1377 0 2.0599-0.31316 2.0599-0.69949s-0.92226-0.69949-2.0599-0.69949zm-4.97e-5 0.97316c-0.44512 0-0.80593-0.12254-0.80593-0.27367s0.36081-0.27367 0.80593-0.27367 0.80593 0.12254 0.80593 0.27367c0 0.15114-0.36081 0.27367-0.80593 0.27367z"/>
 </g>
</svg>
