<svg width="60" height="60" version="1.1" viewBox="0 0 12.964 12.964" xmlns="http://www.w3.org/2000/svg">
 <circle cx="6.482" cy="6.482" r="6.35" fill="#f7fdf6" stroke="#56db40" stroke-width=".26407"></circle>
 <g transform="matrix(.70002 0 0 .70002 3.1799 2.7527)" fill="#3ecd27" stroke-width=".024805">
  <path d="m2.9031 5.7051 0.9204-0.48439-0.9204-0.48441 0.55488-0.87972-1.0393 0.04068 0.04068-1.0393-0.87972 0.55488-0.48441-0.9204-0.48441 0.9204-0.87972-0.55488 0.04068 1.0393-1.0393-0.04068 0.55488 0.87972-0.9204 0.48441 0.9204 0.48441-0.55488 0.87972 1.0393-0.04068-0.04068 1.0393 0.87972-0.55488 0.48441 0.92043 0.48441-0.9204 0.87972 0.55486-0.04068-1.0393 1.0393 0.04068zm-1.8079 0.87975c-0.75339 0-1.3641-0.61077-1.3641-1.3641 0-0.75337 0.61074-1.3641 1.3641-1.3641 0.75339 0 1.3641 0.61077 1.3641 1.3641 0 0.75337-0.61074 1.3641-1.3641 1.3641z" fill="#3ecd27"/>
  <path d="m9.7936 10.621c-0.25127 0.17668-0.43282 0.30435-0.84428 0.30435s-0.59303-0.12767-0.84433-0.30435c-0.27863-0.19591-0.62543-0.43971-1.2722-0.43971-0.64683 0-0.9936 0.24383-1.2722 0.43971-0.25127 0.17668-0.43282 0.30435-0.84423 0.30435s-0.59296-0.12764-0.84423-0.30435c-0.27863-0.19588-0.6254-0.43971-1.2722-0.43971-0.64683 0-0.99358 0.24383-1.2722 0.43971-0.25127 0.17668-0.43282 0.30435-0.84423 0.30435s-0.59293-0.12764-0.8442-0.30435c-0.27863-0.19591-0.62538-0.43974-1.2722-0.43974v0.74407c0.41139 0 0.59296 0.12764 0.84423 0.30435 0.27863 0.19588 0.6254 0.43971 1.2722 0.43971 0.64683 0 0.99358-0.24383 1.2722-0.43971 0.25127-0.17668 0.43282-0.30435 0.84423-0.30435s0.59293 0.12764 0.8442 0.30435c0.27863 0.19588 0.6254 0.43971 1.2722 0.43971s0.99358-0.2438 1.2722-0.43971c0.25127-0.17668 0.43282-0.30435 0.84425-0.30435s0.59301 0.12764 0.8443 0.30435c0.27863 0.19591 0.62543 0.43971 1.2723 0.43971 0.64683 0 0.9936-0.2438 1.2722-0.43971 0.25132-0.17666 0.43287-0.30435 0.84433-0.30435v-0.74407c-0.64683 0-0.9936 0.2438-1.2723 0.43974z" fill="#3ecd27"/>
  <path d="m10.682 1.695c-0.40915-0.87742-1.0994-1.567-1.9654-1.973l0.17542-0.48193-0.69924-0.25455-0.17549 0.48218c-2.0217-0.53509-4.161 0.55451-4.8897 2.5571l-0.15019 0.41268 0.43175 0.080318c0.69773 0.1298 1.3648 0.37259 1.9826 0.72164l0.086866 0.049064 0.09974-9.737e-4c0.012552-1.24e-4 0.025102-1.736e-4 0.037629-1.736e-4 0.32841 0 0.65293 0.041994 0.96639 0.12296l-1.7337 4.7632c-0.043855-5.503e-4 -0.08766-0.00133-0.13156-0.00133-1.1496 0-2.2786 0.18824-3.3556 0.55949-0.67853 0.23388-1.328 0.53777-1.9414 0.90673 0.28339 0.1179 0.4922 0.26452 0.64765 0.37381 0.21756 0.153 0.24031 0.16897 0.4163 0.16897 0.17601 0 0.19874-0.016 0.41622-0.16892 0.30604-0.21518 0.81806-0.57515 1.7002-0.57515 0.88215 0 1.3942 0.36002 1.7001 0.5751 0.21756 0.153 0.24031 0.16897 0.4163 0.16897 0.17601 0 0.19874-0.016 0.4162-0.16892 0.30607-0.21516 0.81808-0.57515 1.7003-0.57515 0.88228 0 1.3943 0.36004 1.7002 0.57512 0.21754 0.15295 0.24028 0.16895 0.41632 0.16895s0.19878-0.016 0.41625-0.16892c0.1555-0.10934 0.36438-0.25599 0.64782-0.37391-0.61337-0.36897-1.2628-0.67286-1.9414-0.90674-0.79149-0.27283-1.6111-0.44639-2.4462-0.51946l1.6552-4.5474c0.30334 0.14481 0.58876 0.32956 0.84805 0.55143l0.075803 0.064864 0.098078 0.018231c0.69773 0.1298 1.3648 0.37259 1.9827 0.72164l0.38239 0.216 0.15022-0.4127c0.37386-1.0272 0.32536-2.1385-0.13662-3.1294z" fill="#3ecd27"/>
 </g>
</svg>
