<svg width="46" height="60" version="1.1" viewBox="0 0 218.77 507.04" xmlns="http://www.w3.org/2000/svg">
 <g transform="translate(-133.22 8.1826)" stroke="#fff" stroke-width="16.368" fill="#917c6f">
  <path d="m242.61 0c-100.48 0-181.96 81.473-181.96 181.96 0 40.928 13.504 78.659 36.31 109.08l145.65 194.18 145.64-194.18c22.808-30.416 36.31-68.146 36.31-109.08 0-100.48-81.473-181.96-181.96-181.96z" stroke="#f7f5f4" stroke-width="16.368" fill="#917c6f"/>
 </g>
 <ellipse cx="109.23" cy="190.92" rx="121.94" ry="122.25" fill="#f7f5f4" stroke-width="1.6182"/>
 <g transform="matrix(.33587 0 0 .33587 23.248 104.94)" fill="#7b695e">
  <path d="m32 271.69v192c0 17.664 14.368 32 32 32h160v-224z" fill="#7b695e"/>
  <path d="m480 143.69h-101.25c7.264-4.96 13.504-9.888 17.856-14.304 25.824-25.952 25.824-68.192 0-94.144-25.088-25.28-68.8-25.216-93.856 0-13.888 13.92-50.688 70.592-45.6 108.45h-2.304c5.056-37.856-31.744-94.528-45.6-108.45-25.088-25.216-68.8-25.216-93.856 0-25.792 25.952-25.792 68.192-0.032 94.144 4.384 4.416 10.624 9.344 17.888 14.304h-101.25c-17.632 0-32 14.368-32 32v48c0 8.832 7.168 16 16 16h208v-64h64v64h208c8.832 0 16-7.168 16-16v-48c0-17.632-14.336-32-32-32zm-257.89-1.056s-1.344 1.056-5.92 1.056c-22.112 0-64.32-22.976-78.112-36.864-13.408-13.504-13.408-35.52 0-49.024 6.496-6.528 15.104-10.112 24.256-10.112 9.12 0 17.728 3.584 24.224 10.112 21.568 21.696 43.008 77.12 35.552 84.832zm73.664 1.056c-4.544 0-5.888-1.024-5.888-1.056-7.456-7.712 13.984-63.136 35.552-84.832 12.896-13.024 35.456-13.088 48.48 0 13.44 13.504 13.44 35.52 0 49.024-13.792 13.888-56 36.864-78.144 36.864z" fill="#7b695e"/>
  <path d="m288 271.69v224h160c17.664 0 32-14.336 32-32v-192z" fill="#7b695e"/>
 </g>
</svg>
