<svg width="60" height="60" version="1.1" viewBox="0 0 12.964 12.964" xmlns="http://www.w3.org/2000/svg">
 <circle cx="6.482" cy="6.482" r="6.35" fill="#fef0fa" stroke="#f371d1" stroke-width=".26407"></circle>
 <path d="m4.5323 2.2927c-0.49803 0-0.89022 0.39219-0.89022 0.89022v6.1479h5.1946v-6.1479c0-0.49803-0.39221-0.89022-0.89021-0.89022zm0.26707 0.83786h2.8802c0.16757 0 0.31944 0.15186 0.31944 0.31944v1.7071c0 0.16757-0.15186 0.31944-0.31944 0.31944h-2.8802c-0.16757 0-0.31944-0.15187-0.31944-0.31944v-1.7071c0-0.16757 0.15187-0.31944 0.31944-0.31944zm4.493 0.047132-0.24088 0.24088 0.9583 0.95306v1.372c0 0.19019 0.07897 0.38794 0.2147 0.52367l0.79074 0.78549v1.2725c0 0.37588-0.29443 0.67028-0.67028 0.67028-0.37587 0-0.67028-0.29443-0.67028-0.67028v-0.83787c0-0.44541-0.27632-0.81244-0.67028-0.94783v0.36657c0.20092 0.11462 0.33515 0.32889 0.33515 0.58126v0.83786c0 0.56371 0.44171 1.0054 1.0054 1.0054 0.56372 0 1.0054-0.44172 1.0054-1.0054v-2.7806c0-0.19019-0.07893-0.38794-0.21471-0.52367zm-5.818 6.4882c-0.092499 0-0.16757 0.074904-0.16757 0.16757v0.67028c0 0.09274 0.075068 0.16757 0.16757 0.16757h5.5299c0.092669 0 0.16758-0.07486 0.16758-0.16757v-0.67028c0-0.092668-0.074904-0.16757-0.16758-0.16757z" fill="#f04dc5" stroke-width=".16757"/>
</svg>
