<svg width="60" height="60" version="1.1" viewBox="0 0 12.964 12.964" xmlns="http://www.w3.org/2000/svg">
 <circle cx="6.482" cy="6.482" r="6.35" fill="#847138" stroke="#fff" stroke-width=".26407"></circle>
 <path d="m4.8654 2.0792v2.167c0 0.11007-0.10777 0.21785-0.21784 0.21785s-0.21784-0.10777-0.21784-0.21785v-2.1326c-0.3669 0.036696-0.55034 0.080257-0.55034 0.080257s-0.14905 1.6808-0.14905 2.6715c0 1.1007 1.1007 1.1076 1.1007 1.5479 0 0.3669-0.3669 2.637-0.3669 3.7378 0 0.40359 0.3302 0.73377 0.73381 0.73377 0.40358 0 0.73377-0.33021 0.73377-0.73377 0-1.1007-0.36691-3.38-0.36691-3.7835 0-0.40358 1.1007-0.40128 1.1007-1.502 0-0.62373-0.11465-2.6715-0.11465-2.6715s-0.18115-0.043563-0.58475-0.080256v2.167c0 0.11007-0.10778 0.21784-0.21784 0.21784-0.14675 0-0.21784-0.10777-0.21784-0.21784v-2.2014h-0.33249zm4.3683 0c-0.73377 0-1.8345 2.2014-1.8345 4.2194 0 0 0.91724 0.66041 0.91724 1.2841 0 1.1374-0.55034 1.7611-0.55034 2.5682 0 0.4036 0.3302 0.73378 0.73381 0.73378 0.40358 0 0.73377-0.33021 0.73377-0.73378z" fill="#f7f4ec" stroke-width=".3669"/>
</svg>
