<svg width="46" height="60" version="1.1" viewBox="0 0 218.77 507.04" xmlns="http://www.w3.org/2000/svg">
 <g transform="translate(-133.22 8.1826)" stroke="#fff" stroke-width="16.368" fill="#a52a2a">
  <path d="m242.61 0c-100.48 0-181.96 81.473-181.96 181.96 0 40.928 13.504 78.659 36.31 109.08l145.65 194.18 145.64-194.18c22.808-30.416 36.31-68.146 36.31-109.08 0-100.48-81.473-181.96-181.96-181.96z" stroke="#cccccc" stroke-width="16.368" fill="#a52a2a"/>
 </g>
 <ellipse cx="109.23" cy="190.92" rx="121.94" ry="122.25" fill="#862222" stroke-width="1.6182"/>
 <path d="m168.57 143.83h-49.171l6.8142-22.077h27.011c2.8239 0 5.1157-2.4726 5.1157-5.519 0-3.0466-2.2918-5.519-5.1157-5.519h-30.694c-2.1998 0-4.1539 1.5232-4.8599 3.7751l-9.0651 29.34h-52.58c-2.8239 0-5.1157 2.4726-5.1157 5.519v16.557c0 34.659 24.811 63.128 56.273 65.952v44.428h-20.463c-2.8239 0-5.1157 2.4726-5.1157 5.519 0 3.0466 2.2918 5.519 5.1157 5.519h51.157c2.8239 0 5.1157-2.4726 5.1157-5.519 0-3.0466-2.2918-5.519-5.1157-5.519h-20.463v-44.428c31.462-2.8257 56.273-31.293 56.273-65.952v-16.557c0-3.0466-2.2918-5.519-5.1157-5.519zm-5.1157 22.077h-102.31v-11.038h102.31z" stroke-width=".3321" fill="#cccccc"/>
 <path d="m55.317 114.2c-16.954 0-30.694 14.825-30.694 33.115 0 14.703 8.9321 27.01 21.22 31.337-0.34787-3.0576-0.75712-6.1152-0.75712-9.261v-16.557c0-9.1285 6.8858-16.557 15.348-16.557h23.696c-4.2255-12.838-15.47-22.077-28.812-22.077z" stroke-width=".3321" fill="#cccccc"/>
</svg>
