<svg width="60px" height="60px" version="1.1" viewBox="0 0 512 512" xmlns="http://www.w3.org/2000/svg">
<path d="m480 96h-153.79l21.312-64h84.48c8.832 0 16-7.168 16-16s-7.168-16-16-16h-96c-6.88 0-12.992 4.416-15.2 10.944l-28.352 85.056h-164.45c-8.832 0-16 7.168-16 16v48c0 100.48 77.6 183.01 176 191.2v128.8h-64c-8.832 0-16 7.168-16 16s7.168 16 16 16h160c8.832 0 16-7.168 16-16s-7.168-16-16-16h-64v-128.8c98.4-8.192 176-90.72 176-191.2v-48c0-8.832-7.168-16-16-16zm-16 64h-320v-32h320v32z"/>
<path d="M112,0C58.976,0,16,42.976,16,96c0,42.624,27.936,78.304,66.368,90.848C81.28,177.984,80,169.12,80,160v-48    c0-26.464,21.536-48,48-48h74.112C188.896,26.784,153.728,0,112,0z"/>
</svg>
