<svg width="60px" height="60px" version="1.1" viewBox="0 0 323.36 323.36" xmlns="http://www.w3.org/2000/svg">
<path d="m261.72 134.36c-2.524 0-5.007 0.17-7.452 0.467l-15.365-52.598c1.501-1.749 2.413-4.018 2.413-6.503 0-5.522-4.478-10-10-10h-41.249c-5.522 0-10 4.478-10 10s4.478 10 10 10h26.125l-10.622 16.907c-0.469-0.06-0.95-0.094-1.432-0.081l-89.302 1.295c2.213-1.834 3.623-4.604 3.623-7.702 0-5.522-4.477-10-10-10h-24.09c-5.523 0-10 4.478-10 10s4.477 10 10 10h1.799c0.24 0.895 0.603 1.772 1.109 2.604l4.016 6.609-11.084 21.868c-5.865-1.858-12.105-2.867-18.577-2.867-33.986 1e-3 -61.636 27.65-61.636 61.637s27.65 61.637 61.636 61.637c29.35 0 53.957-20.627 60.13-48.141l32.978 1.908c0.194 0.011 0.387 0.017 0.579 0.017 3.425 0 6.63-1.758 8.466-4.681l61.88-98.495 9.403 32.186c-20.679 9.958-34.985 31.124-34.985 55.569 0 33.986 27.65 61.637 61.637 61.637s61.637-27.65 61.637-61.637-27.651-61.636-61.637-61.636zm-158.2 1.118 33.329 54.853-13.92-0.805c-1.856-17.71-11.246-33.204-24.894-43.228l5.485-10.82zm-83.521 60.518c0-22.958 18.678-41.636 41.636-41.636 3.215 0 6.342 0.378 9.349 1.072l-18.269 36.044c-1.525 3.008-1.431 6.582 0.251 9.506s4.724 4.803 8.091 4.998l40.353 2.335c-5.264 16.964-21.104 29.318-39.775 29.318-22.958 0-41.636-18.678-41.636-41.637zm57.46-9.102 11.354-22.401c7.006 6.053 11.977 14.393 13.742 23.853l-25.096-1.452zm77.986-4.473-35.633-58.644 73.142-1.061-37.509 59.705zm106.28 55.212c-22.959 0-41.637-18.678-41.637-41.637 0-15.333 8.337-28.747 20.71-35.972l11.328 38.776c1.55 5.302 7.106 8.345 12.402 6.795 5.302-1.549 8.344-7.102 6.795-12.402l-11.331-38.788c0.575-0.024 1.152-0.044 1.733-0.044 22.959 0 41.637 18.678 41.637 41.636s-18.678 41.636-41.637 41.636z"/>
</svg>
