<svg width="60px" height="60px" version="1.1" viewBox="0 0 24 24" xmlns="http://www.w3.org/2000/svg">
 <path d="m12 1v2h4l-1-1 1-1h-4zm0 3 7 7v2s0.244 1 1.5 1 1.5-1 1.5-1v-2l-10-7zm0 0 1 7v2s0.496 1 2 1 2-1 2-1v-2l-5-7zm0 0-5 7v2s0.496 1 2 1 2-1 2-1v-2l1-7zm0 0-10 7v2s0.244 1 1.5 1 1.5-1 1.5-1v-2l7-7zm-6 10s-0.992 1-2.5 1c-0.215 0-0.41075-0.0255-0.59375-0.0625l-0.90625 7.0625h7l1-4h4l1 4h7l-0.90625-7.0625c-0.183 0.037-0.37875 0.0625-0.59375 0.0625-1.737 0-2.5-1-2.5-1s-1.148 1-3 1c-1.597 0-3-1-3-1s-1.411 1-3 1c-1.826 0-3-1-3-1z"/>
</svg>
