<svg width="60px" height="60px" version="1.1" viewBox="0 0 791.8 791.8" xmlns="http://www.w3.org/2000/svg">
<g>
<path d="m395.9 475.02-236.2-72.7v121.42c0 56.133 105.79 101.64 236.27 101.64 130.48 0 236.28-45.511 236.28-101.64 0-0.442-0.145-0.886-0.154-1.318v-120.1l-236.2 72.7z"/>
<path d="m0 318.73 84.383 30.185 7.191-15.401 31-2.635 4.42 4.599-26.601 6.308-3.877 11.475c-7e-3 0-60.087 125.6-51.263 187.05 0 0 37.502 22.37 74.988 0l9.962-168v-13.984l55.8-12.588-3.941 9.705-41.604 13.529 19.242 6.874 236.2 72.7 236.2-72.7 159.7-57.116-395.9-152.31-395.9 152.31z"/>
</g>
</svg>
