<svg width="60px" height="60px" version="1.1" viewBox="0 0 300.17 300.17" xmlns="http://www.w3.org/2000/svg">
 <path d="m103.78 20.961v63.036c0 3.2018-3.135 6.337-6.3368 6.337-3.2018 0-6.3369-3.1351-6.3369-6.337v-62.035c-10.673 1.0673-16.009 2.3347-16.009 2.3347s-4.3358 48.894-4.3358 77.711c0 32.018 32.018 32.218 32.018 45.026 0 10.673-10.673 76.71-10.673 108.73 0 11.74 9.6054 21.345 21.346 21.345 11.74 0 21.345-9.6056 21.345-21.345 0-32.018-10.673-98.322-10.673-110.06 0-11.74 32.018-11.673 32.018-43.691 0-18.144-3.3352-77.711-3.3352-77.711s-5.2696-1.2674-17.01-2.3347v63.036c0 3.2018-3.1352 6.3369-6.3368 6.3369-4.269 0-6.337-3.1351-6.337-6.3369v-64.036h-9.6719zm127.07 0c-21.345 0-53.364 64.036-53.364 122.74 0 0 26.682 19.211 26.682 37.355 0 33.085-16.009 51.229-16.009 74.709 0 11.74 9.6054 21.345 21.346 21.345 11.74 0 21.345-9.6056 21.345-21.345z" stroke-width="10.673"/>
</svg>
