<svg width="60px" height="60px" version="1.1" viewBox="0 0 384 384" xmlns="http://www.w3.org/2000/svg">
 <path d="m79.292 20.128c-20.606 0-36.833 16.227-36.833 36.833v254.37h214.93v-254.37c0-20.606-16.228-36.833-36.833-36.833zm11.05 34.667h119.17c6.9333 0 13.217 6.2833 13.217 13.217v70.633c0 6.9333-6.2833 13.217-13.217 13.217h-119.17c-6.9333 0-13.217-6.2835-13.217-13.217v-70.633c0-6.9333 6.2835-13.217 13.217-13.217zm185.9 1.95-9.9667 9.9667 39.65 39.433v56.767c0 7.8693 3.2674 16.051 8.8832 21.667l32.717 32.5v52.65c0 15.552-12.182 27.733-27.733 27.733-15.552 0-27.733-12.182-27.733-27.733v-34.667c0-18.429-11.433-33.615-27.733-39.217v15.167c8.3131 4.7424 13.867 13.608 13.867 24.05v34.667c0 23.324 18.276 41.6 41.6 41.6 23.324 0 41.6-18.276 41.6-41.6v-115.05c0-7.8693-3.2676-16.051-8.8836-21.667zm-240.72 268.45c-3.8272 0-6.9333 3.0992-6.9333 6.9333v27.733c0 3.8341 3.1061 6.9333 6.9333 6.9333h228.8c3.8343 0 6.9335-3.0992 6.9335-6.9333v-27.733c0-3.8341-3.0992-6.9333-6.9335-6.9333z" stroke-width="6.9333"/>
</svg>
