<svg width="60px" height="60px" version="1.1" viewBox="0 0 528.77 528.77" xmlns="http://www.w3.org/2000/svg">
 <path d="m243.92 88.88v47.644c47.589 0 31.607 15.973 63.342 15.973h15.973v-47.644h-15.973c-31.726 0-15.753-15.973-63.342-15.973zm-123.38 86.476c-4.8647 0-8.8128 3.9482-8.8128 8.8128v26.438h299.64v-26.438c0-4.8647-3.9393-8.8128-8.8128-8.8128zm-70.503 52.877c-4.8647 0-8.8128 3.9393-8.8128 8.8128v185.07c0 4.8735 3.9482 8.8128 8.8128 8.8128h423.02c4.8735 0 8.8128-3.9393 8.8128-8.8128v-185.07c0-4.8735-3.9393-8.8128-8.8128-8.8128zm44.064 44.064h26.439v44.064h-26.439zm61.69 0h26.438v44.064h-26.438zm61.69 0h26.438v44.064h-26.438zm61.69 0h26.438v44.064h-26.438zm61.69 0h26.438v44.064h-26.438zm61.69 0h26.438v44.064h-26.438zm-308.45 70.503h26.439v44.064h-26.439zm61.69 0h26.438v44.064h-26.438zm61.69 0h26.438v44.064h-26.438zm61.69 0h26.438v44.064h-26.438zm61.69 0h26.438v44.064h-26.438zm61.69 0h26.438v44.064h-26.438z" stroke-width="8.8128"/>
</svg>
