<svg width="60" height="60" version="1.1" viewBox="0 0 128 128" xmlns="http://www.w3.org/2000/svg"><path d="m118.7 112.9v-70.8l-38.6-11.1v81.9h-2.8v-102.9h-44.5v103h-2.6v-42.3h-24.1v42.3h-0.1v5.1h116v-5.1l-3.3-0.1zm-17.1-65.5h11.1v12.4h-11.1v-12.4zm0 15.7h11.1v12.4h-11.1v-12.4zm0 17h11.1v12.4h-11.1v-12.4zm0 17h11.1v12.4h-11.1v-12.4zm-17-49.7h11.1v12.4h-11.1v-12.4zm0 15.7h11.1v12.4h-11.1v-12.4zm0 17h11.1v12.4h-11.1v-12.4zm0 17h11.1v12.4h-11.1v-12.4zm-64.9-22.5h7.2v7.5h-7.2v-7.5zm0 14.5h7.2v7.5h-7.2v-7.5zm0 14.2h7.2v7.5h-7.2v-7.5zm-10.3-28.5h7.2v7.5h-7.2v-7.5zm0 14.4h7.2v7.5h-7.2v-7.5zm0 14.2h7.2v7.5h-7.2v-7.5zm49.6-85.3h11.1v11.1h-11.1v-11.1zm0 22.2h11.1v11.1h-11.1v-11.1zm0 22.6h11.1v11.1h-11.1v-11.1zm-19.1-44.8h11.1v11.1h-11.1v-11.1zm0 22.2h11.1v11.1h-11.1v-11.1zm0 22.6h11.1v11.1h-11.1v-11.1zm3.9 19.4h22.2v30.7h-5.5v-25.9h-11.2v25.8h-5.6l0.1-30.6z"/></svg>
