<svg width="60px" height="60px" version="1.1" viewBox="0 0 24 24" xmlns="http://www.w3.org/2000/svg">
 <path d="m7.5 2c-3.0333 0-5.5 2.4667-5.5 5.5v0.5h2v-0.5c0-1.9667 1.5333-3.5 3.5-3.5 1.6049 0 2.9138 1.0243 3.3438 2.4688-0.13951-0.072607-0.28864-0.13097-0.4375-0.1875-0.10622-0.041577-0.20221-0.092066-0.3125-0.125-0.041544-0.012036-0.082923-0.020524-0.125-0.03125-0.30867-0.081232-0.63578-0.125-0.96875-0.125-1.3333 0-2.5445 0.6635-3.3125 1.6875l1.625 1.2188c0.432-0.576 1.0208-0.90625 1.6875-0.90625 1.1902 0 2 0.8098 2 2v1h2v-1c0-1.1902 0.8098-2 2-2 0.5 0 0.96464 0.19537 1.3438 0.53125 0.12637 0.11196 0.23575 0.231 0.34375 0.375l1.625-1.2188c-0.768-1.024-1.9792-1.6875-3.3125-1.6875-0.25399 0-0.50957 0.013945-0.75 0.0625-0.076131 0.014198-0.14416 0.044092-0.21875 0.0625-0.065645 0.017276-0.12318 0.042062-0.1875 0.0625-0.19356 0.058128-0.38246 0.13353-0.5625 0.21875-0.041239 0.019904-0.084536 0.041423-0.125 0.0625 0.42994-1.4445 1.7388-2.4688 3.3438-2.4688 1.9667 0 3.5 1.5333 3.5 3.5v0.5h2v-0.5c0-3.0333-2.4667-5.5-5.5-5.5-1.8628 0-3.4785 0.95129-4.4688 2.375-0.99385-1.4317-2.6598-2.375-4.5312-2.375zm-1.5 10v2h1.25c0.63803 1.4437 2.4914 3 4.75 3s4.112-1.5563 4.75-3h1.25v-2h-12zm4 6v1h-8l0.5 1.5938c0.3 0.8 1.0062 1.4062 1.9062 1.4062h15.188c0.9 0 1.6062-0.60625 1.9062-1.4062l0.5-1.5938h-8v-1h-4z"/>
</svg>
