<svg width="60px" height="60px" version="1.1" viewBox="-45 0 512 512" xmlns="http://www.w3.org/2000/svg">
<g>
<path d="m0 0h126.17v111h-126.17z"/>
<path d="m156.17 111h266.17v-111h-266.17zm182.78-69.984h29.641v29.637h-29.641zm-26.945 0v29.637h-29.637v-29.637z"/>
<path d="m0 141v371h422.34v-371zm211.17 294.99c-65.258 0-118.35-53.094-118.35-118.35s53.09-118.35 118.35-118.35c65.258 0 118.35 53.094 118.35 118.35s-53.09 118.35-118.35 118.35z"/>
</g>
<path d="m135.52 285.68c19.695-6.6133 50.469-8.4336 85.23 20.426 19.121 15.875 38.613 21.023 57.934 15.297 9.0703-2.6914 16.246-7.2305 20.578-10.48-3.4453-45.586-41.641-81.625-88.094-81.625-38.609 0-71.508 24.895-83.5 59.477 2.4648-1.1172 5.082-2.1641 7.8516-3.0938z"/>
<path d="m123.39 327.6-0.003906-0.003906v0.007812z"/>
<path d="m288.74 349.69c-7.2383 2.2891-15.859 3.9883-25.5 3.9883-17.836 0-39.156-5.8203-61.652-24.496-19.008-15.781-37.68-20.961-55.496-15.402-13.418 4.1875-22.016 13.09-22.707 13.824 4.9648 44.043 42.438 78.387 87.785 78.387 38.145 0 70.719-24.301 83.059-58.234-1.7656 0.68359-3.5938 1.3359-5.4883 1.9336z"/>
</svg>
