<svg width="60px" height="60px" version="1.1" viewBox="-121 0 512 512" xmlns="http://www.w3.org/2000/svg">
<path d="m270.21 360.99h-75.008v-30.004h-120.01v30.004h-75.008v151.01h270.02zm-90.008 90.008h-90.008v-30.004h90.008z"/>
<path d="m230.63 166.88-40.535-10.152c12.715-13.684 20.113-31.805 20.113-50.762v-26.793c0-41.113-31.445-79.172-74.715-79.172-41.465 0-75.301 34.281-75.301 75.961v30.004c0 18.957 7.3984 37.078 20.117 50.762l-40.539 10.137c-41.297 10.316-40.254 46.527-39.582 75.637 0.10156 4.3945 0 28.48 0 28.48h38.793l30.004 30.004h132.43l30-30.004h38.793s-0.10156-24.086 0-28.48c0.67578-29.109 1.7148-65.324-39.582-75.621z"/>
</svg>
