<svg width="60px" height="60px" version="1.1" viewBox="-81 0 512 512" xmlns="http://www.w3.org/2000/svg">
<path d="m175 322c-8.2695 0-15 6.7305-15 15s6.7305 15 15 15 15-6.7305 15-15-6.7305-15-15-15z"/>
<path d="m175 252c-46.867 0-85 38.133-85 85s38.133 85 85 85 85-38.133 85-85-38.133-85-85-85zm0 130c-24.812 0-45-20.188-45-45s20.188-45 45-45 45 20.188 45 45-20.188 45-45 45z"/>
<path d="m175 162c19.852 0 36-16.148 36-36s-16.148-36-36-36-36 16.148-36 36 16.148 36 36 36z"/>
<path d="m311.21 0h-272.43l-38.785 38.785v473.21h350v-473.21zm-56.215 192c8.2852 0 15 6.7148 15 15s-6.7148 15-15 15-15-6.7148-15-15 6.7148-15 15-15zm-80-132c36.395 0 66 29.605 66 66s-29.605 66-66 66-66-29.605-66-66 29.605-66 66-66zm-65 147c0 8.2852-6.7148 15-15 15s-15-6.7148-15-15 6.7148-15 15-15 15 6.7148 15 15zm-35-147c8.2852 0 15 6.7148 15 15s-6.7148 15-15 15-15-6.7148-15-15 6.7148-15 15-15zm100 392c-63.41 0-115-51.59-115-115s51.59-115 115-115 115 51.59 115 115-51.59 115-115 115zm100-362c-8.2852 0-15-6.7148-15-15s6.7148-15 15-15 15 6.7148 15 15-6.7148 15-15 15z"/>
</svg>
