<svg width="60px" height="60px" version="1.1" viewBox="0 0 135.47 135.47" xmlns="http://www.w3.org/2000/svg">
 <path d="m9.2478 109.95c0-4.3998 0.17596-8.4582 0.39101-9.0186 0.46083-1.2009 2.885-1.3504 3.9894-0.24593 0.42516 0.42515 0.77302 1.8746 0.77302 3.2209v2.4479h42.442l0.19808-2.6722c0.2295-3.0959 1.7489-4.5284 3.5801-3.3752 0.96412 0.60714 1.1533 1.9356 1.3071 9.1763l0.17974 8.4664h-5.1909v-7.7302h-42.516v7.7302h-5.1535zm60.268 6.5679c-0.79306-1.1322-1.0028-3.3406-1.0028-10.559v-9.1269l2.4157-0.2977c1.3286-0.16373 3.0679-0.0577 3.8651 0.23567 1.4093 0.5186 1.4494 0.78468 1.4494 9.6102 0 5.025-0.29768 9.6331-0.66685 10.323-0.97011 1.8127-4.7418 1.6971-6.0606-0.18569zm38.315 0.18568c-0.36677-0.6853-0.66685-4.05-0.66685-7.477 0-5.4172 0.13309-6.18 1.019-5.84 0.56043 0.21507 1.72 0.39102 2.5767 0.39102 1.5532 0 1.5578 0.0209 1.5578 7.086v7.086h-1.9099c-1.229 0-2.1476-0.44425-2.5767-1.246zm-90.413-14.634c-0.98778-0.98778-0.42952-4.6938 0.80673-5.3554 0.76501-0.40941 7.5562-0.66684 17.592-0.66684 18.285 0 18.775 0.10349 18.414 3.8935l-0.21175 2.2262-18.081 0.17088c-9.9446 0.094-18.279-0.0268-18.52-0.26841zm89.282-2.101c-1.1414-0.7168-2.4431-1.8923-2.8927-2.6123-0.62979-1.0085-1.4995-1.309-3.7882-1.309-3.5742 0-6.6803-1.8876-8.3846-5.0955-1.3488-2.5387-1.1118-3.2789 1.05-3.2789 2.6541 0 8.3442-2.4856 11.11-4.8531 6.2405-5.3416 8.1123-14.905 4.3979-22.47l-1.8711-3.8108 1.4593-1.1817c0.80263-0.64992 2.0202-1.1817 2.7056-1.1817 1.6718 0 4.4086 2.8239 4.4086 4.5489 0 1.0844 0.24563 1.276 1.1273 0.879 4.9246-2.2173 9.3755 2.416 7.513 7.8208-0.49315 1.4311-0.61427 2.6227-0.2783 2.7382 3.9048 1.342 8.3868 7.8816 8.3868 12.237 0 5.6785-3.1298 10.648-8.2126 13.04-1.6834 0.79229-3.9996 2.3215-5.1471 3.3982-2.7739 2.6027-8.3704 3.149-11.584 1.1308zm-89.292-5.6391c-0.97981-0.97981-0.41348-4.6872 0.81656-5.3455 1.6795-0.89885 33.191-0.89885 34.871 0 1.2359 0.66145 1.6157 2.7738 0.85501 4.756-0.34354 0.89526-2.5594 1.019-18.252 1.019-9.8235 0-18.054-0.19326-18.29-0.42946zm50.48-1.5756c-2.587-1.0324-5.7593-3.7279-7.367-6.2596-1.1149-1.7556-2.343-2.658-4.7696-3.5048-4.6982-1.6396-9.7852-6.5164-12.054-11.555-3.794-8.4282-1.8198-18.37 4.8953-24.651 1.7072-1.5968 4.1198-3.3878 5.3615-3.9799l2.2575-1.0765-1.3417-1.8843c-2.6492-3.7204-1.4203-9.7362 2.4815-12.148 2.2853-1.4124 6.9264-1.872 9.7117-0.96176 1.363 0.44545 1.4494 0.29539 1.4494-2.5181 0-2.4478 0.34238-3.3342 1.883-4.8748 2.0487-2.0487 4.23-2.3797 7.7032-1.169 2.474 0.86244 3.9417 3.4538 3.9417 6.9594 0 2.4818 0.10484 2.6121 2.6527 3.2982 5.0392 1.3569 10.213 8.0435 10.227 13.217 3e-3 0.92301 0.68354 1.5659 2.2644 2.1375 3.7698 1.3632 5.3307 6.1064 3.1198 9.4807-1.0393 1.5862-1.0066 1.6738 1.5864 4.2411 7.1602 7.0893 5.8306 18.728-2.7455 24.031-2.6633 1.6471-3.842 1.96-7.5961 2.0169-4.2217 0.064-4.4917 0.16045-5.4067 1.9326-2.5515 4.9416-7.6337 8.0087-13.163 7.9442-1.9254-0.02249-4.2167-0.3266-5.0919-0.67588zm-40.211-32.794c-1.4758-3.6885-1.3702-5.2802 0.33355-5.0242 1.4571 0.21897 3.9081 5.252 3.3129 6.8029-0.67049 1.7473-2.6152 0.79865-3.6465-1.7787zm-16.915-0.32642c-0.51024-1.3296 2.8783-6.1024 4.3326-6.1024 2.0249 0 2.0119 1.191-0.0459 4.1818-2.0426 2.9689-3.6143 3.673-4.2867 1.9206zm10.495-7.4023c-4.9972-1.5156-7.5499-7.1271-5.2582-11.559 4.1614-8.0472 15.784-5.553 15.793 3.3891 6e-3 5.8187-5.137 9.8069-10.535 8.1698zm15.094-5.048c-1.7724-0.51219-2.2094-1.3094-1.41-2.5722 0.42383-0.66951 1.3414-0.74172 4.0157-0.31603 2.8466 0.45311 3.4663 0.781 3.4663 1.8341 0 1.0148-0.47042 1.3056-2.2546 1.394-1.2401 0.0615-2.9579-0.0915-3.8173-0.33986zm-30.647-3.8784c-2.013-0.31465-2.5767-0.68462-2.5767-1.6911 0-1.0108 0.49362-1.3298 2.291-1.4809 3.1405-0.26387 5.9126 0.86058 5.6405 2.288-0.23993 1.2589-1.5612 1.477-5.3548 0.88402zm23.513-10.192c0-1.7187 3.3076-6.0711 4.447-5.8517 1.6692 0.32146 1.548 2.2623-0.29196 4.6746-1.8255 2.3933-4.1551 3.0533-4.1551 1.1771zm-13.762-2.955c-1.4622-3.8286-1.3793-5.1095 0.3142-4.8546 0.95791 0.14414 1.7328 1.1376 2.5849 3.314 1.3064 3.3367 1.1535 4.3-0.68251 4.3-0.776 0-1.5134-0.91794-2.2166-2.7593z" stroke-width=".64418"/>
</svg>
