<svg width="60" height="60" version="1.1" viewBox="0 0 46.007 46.006" xmlns="http://www.w3.org/2000/svg">
 <path d="m23.004 5.167c-9.836 0-17.837 8.001-17.837 17.837 0 9.835 8.001 17.836 17.837 17.836 9.835 0 17.836-8.001 17.836-17.836 0-9.837-8.001-17.837-17.836-17.837zm8.996 27.836h-6v-8h-6v8h-6v-21h6v8h6v-8h6v21z"/>
 <path d="M23.003,0C10.299,0,0,10.298,0,23.003c0,12.704,10.299,23.003,23.003,23.003s23.004-10.3,23.004-23.003    C46.007,10.298,35.708,0,23.003,0z M23.004,43.089c-11.076,0-20.087-9.01-20.087-20.086s9.01-20.086,20.086-20.086    c11.077,0,20.087,9.01,20.087,20.086S34.08,43.089,23.004,43.089z"/>
</svg>
