<svg width="60px" height="60px" version="1.1" viewBox="0 0 266.67 266.67" xmlns="http://www.w3.org/2000/svg">
 <path d="m77.28 233.85c-0.77921-0.9389-1.6027-4.9889-1.8299-9l-0.41317-7.2929-12.465-0.69158c-12.007-0.66618-12.607-0.85067-16.333-5.021-6.7221-7.5234-5.7175-11.509 8.1387-32.287l12.003-18-8.3386-0.66667c-11.982-0.95796-11.788-2.5788 2.9369-24.58l12.105-18.086h-9.7569c-17.235 0-17.117-2.574 1.3764-30.027 21.886-32.49 22.302-32.496 43.927-0.6332 8.2096 12.097 14.96 23.27 15 24.831 0.11387 4.3994-2.5906 5.6694-12.988 6.0993l-9.6084 0.39727 12.028 18c7.0719 10.583 11.88 19.099 11.668 20.667-0.31351 2.3209-1.5251 2.7177-9.3433 3.0605l-8.9831 0.39387 11.759 17.606c6.4673 9.6834 12.107 18.971 12.533 20.638 1.2177 4.7667-1.447 12.1-5.3224 14.647-2.434 1.5998-7.2804 2.5278-15.601 2.9874l-12.07 0.66666-0.41317 7.2929c-0.22724 4.0111-1.0507 8.0611-1.8299 9-0.85098 1.0254-4.4812 1.7071-9.0902 1.7071s-8.2393-0.68172-9.0902-1.7071zm68.699 0.87106c-0.51796-0.51796-0.94174-10.016-0.94174-21.107v-20.166l-6.6667-10.558c-3.6667-5.8066-6.6667-10.959-6.6667-11.449s0.9-3.0457 2-5.6784c3.2849-7.8619 2.5871-18.071-1.7958-26.274l-3.7958-7.104 3.7958-7.2159c2.9604-5.6278 3.7958-8.9937 3.7958-15.294 0-7.9456-0.20888-8.4005-12.772-27.815-14.282-22.07-14.641-23.81-5.5342-26.846 4.6701-1.5567 5.717-2.5694 6.4719-6.2604 1.1978-5.8566 4.8426-10.561 11.866-15.315 9.6946-6.5625 20.985-4.8965 29.823 4.4005 2.1197 2.2298 5.7197 4.4422 8 4.9164 6.1403 1.2769 14.534 6.5055 19.472 12.129 6.7246 7.6589 9.2723 14.506 9.3537 25.138l0.0715 9.3333 5.9526 3.6121c15.19 9.2175 21.004 31.137 12.837 48.4-3.7276 7.8794-10.784 15.456-17.057 18.314-2.708 1.2338-3.0656 2.1046-2.3752 5.7842 1.1459 6.1083-2.5478 17.588-7.635 23.729-5.0229 6.0632-15.731 11.463-22.767 11.482l-4.9602 0.0133-0.37316 17-0.37318 17-9.3916 0.3862c-5.1654 0.2124-9.8154-0.0376-10.333-0.55556z" stroke-width="1.3333"/>
</svg>
