<svg width="46" height="60" version="1.1" viewBox="0 0 218.77 507.04" xmlns="http://www.w3.org/2000/svg">
 <g transform="translate(-133.22 8.1826)" stroke="#fff" stroke-width="16.368" fill="#ffd42a">
  <path d="m242.61 0c-100.48 0-181.96 81.473-181.96 181.96 0 40.928 13.504 78.659 36.31 109.08l145.65 194.18 145.64-194.18c22.808-30.416 36.31-68.146 36.31-109.08 0-100.48-81.473-181.96-181.96-181.96z" stroke="#fffcee" stroke-width="16.368" fill="#ffd42a"/>
 </g>
 <ellipse cx="109.23" cy="190.92" rx="121.94" ry="122.25" fill="#fffcee" stroke-width="1.6182"/>
 <path d="m104.23 86.034v7.9795c-20.885 1.756-39.133 12.902-50.511 29.191l-6.9367-4.0044-5.8027 10.047 6.9197 3.9925c-4.1765 8.8595-6.5129 18.747-6.5129 29.174 0 10.426 2.3364 20.314 6.5129 29.174l-6.9197 3.9925 5.8027 10.053 6.9367-4.0044c6.9266 9.9189 16.399 17.928 27.466 23.074l-9.3541 25.697h-50.591v11.605h175.97v-11.605h-48.981l-9.354-25.697c11.068-5.1452 20.546-13.154 27.472-23.074l6.9369 4.0044 5.7969-10.053-6.9138-3.9925c4.1765-8.8594 6.5132-18.747 6.5132-29.174 0-10.425-2.3367-20.314-6.5132-29.174l6.9138-3.9925-5.7969-10.047-6.9369 4.0044c-11.376-16.289-29.626-27.435-50.511-29.191v-7.9795zm0 19.631v30.514c1.8696-0.41317 3.8106-0.642 5.8027-0.642 1.9918 0 3.9275 0.22889 5.797 0.642v-30.514c16.602 1.6842 31.121 10.519 40.423 23.365l-26.407 15.248c2.6129 2.8523 4.6196 6.2691 5.8146 10.041l26.412-15.253c3.2115 7.1304 5.0006 15.033 5.0006 23.347 0 8.3143-1.7887 16.224-5.0006 23.354l-26.412-15.253c-1.1951 3.7724-3.2017 7.1885-5.8146 10.041l26.407 15.248c-5.5102 7.6071-12.848 13.81-21.366 17.951l-10.436-28.675c-3.2312 2.0641-6.9311 3.4539-10.901 3.9758l10.436 28.676c-4.4687 1.1288-9.1446 1.7297-13.96 1.7297-4.8145 0-9.485-0.60084-13.954-1.7297l10.436-28.676c-3.9701-0.5219-7.6693-1.9117-10.901-3.9758l-10.437 28.675c-8.5183-4.141-15.855-10.344-21.366-17.951l26.413-15.248c-2.6129-2.8528-4.6192-6.2691-5.8143-10.041l-26.418 15.253c-3.2115-7.1304-5.0007-15.039-5.0007-23.354 0-8.3143 1.7892-16.216 5.0007-23.347l26.418 15.253c1.1951-3.7728 3.2014-7.189 5.8143-10.041l-26.413-15.248c9.3043-12.846 23.823-21.68 40.423-23.365zm5.8027 41.477c-8.4232 0-15.277 6.8489-15.277 15.271 0 8.4234 6.8544 15.278 15.277 15.278 8.4226 0 15.271-6.8544 15.271-15.278 0-8.4221-6.848-15.271-15.271-15.271zm-17.946 81.535c3.9207 1.0634 7.98 1.7866 12.144 2.137v7.9852h11.605v-7.9852c4.1636-0.3502 8.2228-1.0735 12.144-2.137l7.9048 21.722h-51.702z" stroke-width=".38674" fill="#eebe00"/>
</svg>
