<svg width="46" height="60" version="1.1" viewBox="0 0 218.77 507.04" xmlns="http://www.w3.org/2000/svg">
 <g transform="translate(-133.22 8.1826)" stroke="#fff" stroke-width="16.368" fill="#ffd42a">
  <path d="m242.61 0c-100.48 0-181.96 81.473-181.96 181.96 0 40.928 13.504 78.659 36.31 109.08l145.65 194.18 145.64-194.18c22.808-30.416 36.31-68.146 36.31-109.08 0-100.48-81.473-181.96-181.96-181.96z" stroke="#fffcee" stroke-width="16.368" fill="#ffd42a"/>
 </g>
 <ellipse cx="109.23" cy="190.92" rx="121.94" ry="122.25" fill="#fffcee" stroke-width="1.6182"/>
 <g transform="matrix(1.0116 0 0 1.0116 -74.229 6.4853)" stroke-width=".29297" fill="#eebe00">
  <rect x="106.61" y="135.45" width="37.5" height="9.375"></rect>
  <rect x="106.61" y="107.33" width="37.5" height="18.75"></rect>
  <path d="m218.86 191.7v-28.125l-37.5 28.125v-28.125l-37.5 28.125v-37.5h-37.5v103.12h150v-93.75zm-46.875 37.5h-18.75v-9.375h18.75zm0-18.75h-18.75v-9.375h18.75zm37.5 18.75h-18.75v-9.375h18.75zm0-18.75h-18.75v-9.375h18.75zm37.5 18.75h-18.75v-9.375h18.75zm0-18.75h-18.75v-9.375h18.75z" fill="#eebe00"/>
 </g>
</svg>
