<svg width="46" height="60" version="1.1" viewBox="0 0 218.77 507.04" xmlns="http://www.w3.org/2000/svg">
 <g transform="translate(-133.22 8.1826)" stroke="#fff" stroke-width="16.368" fill="#ffd42a">
  <path d="m242.61 0c-100.48 0-181.96 81.473-181.96 181.96 0 40.928 13.504 78.659 36.31 109.08l145.65 194.18 145.64-194.18c22.808-30.416 36.31-68.146 36.31-109.08 0-100.48-81.473-181.96-181.96-181.96z" stroke="#fffcee" stroke-width="16.368" fill="#ffd42a"/>
 </g>
 <ellipse cx="109.23" cy="190.92" rx="121.94" ry="122.25" fill="#fffcee" stroke-width="1.6182"/>
 <g transform="matrix(.38197 0 0 .38197 11.446 93.136)" fill="#eebe00">
  <path d="m400 64h-288c-26.51 0-48 21.49-48 48v16h384v-16c0-26.51-21.49-48-48-48zm-83.84-32 7.059 50.5h-134.44l7.057-50.5h120.32m3.84-32h-128c-13.2 0-25.495 10.696-27.321 23.769l-9.357 66.962c-1.827 13.073 7.478 23.769 20.678 23.769h160c13.199 0 22.506-10.696 20.68-23.769l-9.357-66.962c-1.829-13.073-14.124-23.769-27.323-23.769zm88 160h-304c-17.6 0-30.696 14.341-29.103 31.869l26.206 288.26c1.593 17.527 17.297 31.868 34.897 31.868h240c17.6 0 33.305-14.341 34.896-31.868l26.205-288.26c1.594-17.528-11.501-31.869-29.101-31.869zm-216 288h-48l-16-224h64zm96 0h-64v-224h64zm80 0h-48v-224h64z" fill="#eebe00"/>
 </g>
</svg>
