<svg width="60" height="60" version="1.1" viewBox="0 0 12.964 12.964" xmlns="http://www.w3.org/2000/svg">
 <circle cx="6.4821" cy="6.4821" r="6.35" fill="#f4fcfc" stroke="#48d1cc" stroke-width=".26425"></circle>
 <path d="m10.539 6.6045h-0.47658c-0.04522 0-0.08001 0.034787-0.08001 0.08001v0.55658h-0.63659v-3.1012c0-0.045222-0.034787-0.08001-0.08001-0.08001h-0.47657c-0.045223 0-0.08001 0.034787-0.08001 0.08001v0.55658h-0.63659v-0.55658c0-0.045222-0.034787-0.08001-0.08001-0.08001h-0.47658c-0.045222 0-0.08001 0.034787-0.08001 0.08001v0.55658h-0.63659v-0.55658c0-0.10436-0.13915-0.08001-0.2035-0.08001v-0.66094c0.14436-0.034787 0.29742-0.059137 0.44701-0.059137 0.18959 0 0.36352 0.074792 0.54615 0.074792 0.08001 0 0.48179-0.019132 0.48179-0.13915v-1.0436c0-0.045222-0.034787-0.08001-0.08001-0.08001-0.088706 0-0.26264 0.074792-0.41744 0.074792-0.16871 0-0.36352-0.074792-0.56702-0.074792-0.13915 0-0.27829 0.019132-0.41222 0.05044v-0.085228c0.093924-0.045222 0.15828-0.14436 0.15828-0.24872 0-0.36004-0.54615-0.36178-0.54615 0 0 0.10436 0.064355 0.2035 0.15828 0.24872v1.9428c-0.064355 0-0.2035-0.02435-0.2035 0.08001v0.55659h-0.63659v-0.55658c0-0.045222-0.034787-0.08001-0.08001-0.08001h-0.47657c-0.045222 0-0.08001 0.034787-0.08001 0.08001v0.55658h-0.63137v-0.55658c0-0.045222-0.034786-0.08001-0.08001-0.08001h-0.47657c-0.045222 0-0.08001 0.034787-0.08001 0.08001v3.1012h-0.63659v-0.55658c0-0.045222-0.034787-0.08001-0.08001-0.08001h-0.47657c-0.045222 5e-7 -0.08001 0.034788-0.08001 0.08001v3.8178h3.1812v-1.6698c0-1.2628 1.908-1.2628 1.908 0v1.6698h3.1812v-3.8178c0.0017-0.045222-0.03305-0.08001-0.07827-0.080009zm-5.011-0.07827c0 0.045222-0.034787 0.08001-0.08001 0.08001h-0.47658c-0.045222 0-0.08001-0.034787-0.08001-0.08001v-1.1132c0-0.045223 0.034787-0.08001 0.08001-0.08001h0.47658c0.045222 0 0.08001 0.034787 0.08001 0.08001zm2.5464 0c0 0.045222-0.034787 0.08001-0.08001 0.08001h-0.47657c-0.045222 0-0.08001-0.034787-0.08001-0.08001v-1.1132c0-0.045223 0.034787-0.08001 0.08001-0.08001h0.47658c0.045222 0 0.08001 0.034787 0.08001 0.08001z" fill="#31c1bc" stroke-width=".017393"/>
</svg>
