<svg width="60" height="60" version="1.1" viewBox="0 0 12.964 12.964" xmlns="http://www.w3.org/2000/svg">
 <circle cx="6.482" cy="6.482" r="6.35" fill="#0a3256" stroke="#93c6f3" stroke-width=".26407"></circle>
 <g transform="matrix(.019391 0 0 .019391 1.9225 1.8379)" fill="#93c6f3">
  <path d="m35.111 174.46v182.87c0 72.011 58.379 130.39 130.4 130.39h119.81c63.208 0 115.88-44.975 127.83-104.66h54.86c8.982 0 16.257-7.275 16.257-16.257v-179.5c0-8.982-7.275-16.257-16.257-16.257h-52.299v-6.324c0-3.26-0.252-6.462-0.488-9.657-7.316 3.845-15.42 6.381-24.02 7.234 0.016 0.813 0.122 1.609 0.122 2.422v20.159c-0.122 0.797-0.244 1.593-0.244 2.422v1.642c0 0.829 0.122 1.626 0.244 2.422v165.97c8e-3 58.453-47.552 106-106 106h-119.81c-58.453 0-106.01-47.552-106.01-106.01v-174.46c-8.632-1.609-16.818-4.47-24.386-8.397zm400.09 30.735c8.982 0 16.257 7.275 16.257 16.257v111.19c0 8.982-7.275 16.257-16.257 16.257h-19.492v-143.7h19.492z" fill="#93c6f3"/>
  <path d="m178.27 451.37h94.283c56.672 0 102.62-45.943 102.62-102.62v-159.22c0-7.917-0.984-15.591-2.682-22.996-6.633 1.569-13.428 2.455-20.362 2.455-24.475 0-47.552-9.99-64.24-27.605-20.013 8.259-43.935 5.844-61.842-6.145-22.451 16.688-52.454 21.866-79.254 13.396-16.672 22.476-42.699 35.725-70.873 35.774-0.081 1.707-0.26 3.398-0.26 5.129v159.21c0 56.673 45.942 102.62 102.62 102.62zm129.93-248.51h0.024c11.217 0 20.305 9.088 20.321 20.297l0.171 151.74c0.016 11.226-9.071 20.33-20.297 20.346h-0.024c-11.217 0-20.305-9.088-20.321-20.297l-0.171-151.74c-0.016-11.226 9.071-20.338 20.297-20.346zm-81.286 0h0.024c11.217 0 20.305 9.088 20.321 20.297l0.171 151.74c0.016 11.226-9.071 20.33-20.297 20.346h-0.024c-11.217 0-20.305-9.088-20.321-20.297l-0.171-151.74c-0.016-11.226 9.072-20.338 20.297-20.346zm-81.286 0h0.024c11.217 0 20.305 9.088 20.321 20.297l0.171 151.74c0.016 11.226-9.071 20.33-20.297 20.346h-0.024c-11.217 0-20.305-9.088-20.321-20.297l-0.171-151.74c-0.016-11.226 9.072-20.338 20.297-20.346z" fill="#93c6f3"/>
  <path d="m35.558 155.91c7.169 4.82 15.274 8.332 23.939 10.331 5.235 1.211 10.665 1.91 16.257 1.91 0.74 0 1.463-0.114 2.195-0.138 23.963-0.723 45.829-13.063 58.818-33.49l3.601-5.682 6.259 2.487c24.898 9.892 53.819 4.877 73.905-12.51l5.21-4.503 5.292 4.389c15.225 12.616 37.627 14.867 55.071 5.552l5.885-3.146 4.235 5.162c13.802 16.81 34.181 26.459 55.908 26.459 5.267 0 10.437-0.602 15.501-1.707 4.365-0.959 8.649-2.276 12.803-4.048l1.609-0.691 2.609 0.081h8e-3c1.666 0 3.308-0.089 4.934-0.252 8.576-0.845 16.509-3.902 23.248-8.559 12.973-8.974 21.5-23.939 21.5-40.87 0-11.177-3.674-21.768-10.624-30.62l-1.081-1.374-0.423-1.691c-8.015-32.311-36.831-54.876-70.085-54.876-21.72 0-42.098 9.649-55.908 26.459l-0.228 0.268-4.007 4.893-5.885-3.146c-1.601-0.854-3.251-1.609-4.918-2.276-10.868-4.373-23.028-4.812-34.571-0.854l-2.495 0.854-3.999 1.374-0.748-1.374-2.536-4.658c-10.704-19.686-32.082-29.668-63.532-29.668-30.572 0-49.958 8.104-61.021 25.507l-3.609 5.682-6.259-2.487c-8.584-3.414-17.55-5.145-26.654-5.145-39.878-9e-3 -72.311 32.424-72.311 72.295 0 25.004 12.761 47.073 32.107 60.062z" fill="#93c6f3"/>
 </g>
</svg>
