<svg width="46" height="60" version="1.1" viewBox="0 0 218.77 507.04" xmlns="http://www.w3.org/2000/svg">
 <g transform="translate(-133.22 8.1826)" stroke="#fff" stroke-width="16.368" fill="#f371d1">
  <path d="m242.61 0c-100.48 0-181.96 81.473-181.96 181.96 0 40.928 13.504 78.659 36.31 109.08l145.65 194.18 145.64-194.18c22.808-30.416 36.31-68.146 36.31-109.08 0-100.48-81.473-181.96-181.96-181.96z" stroke="#fef0fa" stroke-width="16.368" fill="#f371d1"/>
 </g>
 <ellipse cx="109.23" cy="190.92" rx="121.94" ry="122.25" fill="#fef0fa" stroke-width="1.6182"/>
 <g transform="translate(3.9857 -6.7511)" fill="#f04dc5">
  <g transform="matrix(.31612 0 0 .31612 24.317 116.75)" fill="#f04dc5">
   <path d="m383.99 128.01c-87.715-87.715-230.48-87.715-318.19 0-87.729 87.729-87.729 230.46 0 318.19 87.742 87.742 230.47 87.722 318.19 0 87.729-87.729 87.729-230.46 0-318.19zm-84.858 233.33c-52.747 52.778-138.17 52.775-190.91 0-52.632-52.631-52.632-138.28 0-190.91 52.676-52.646 138.3-52.617 190.91 0 52.778 52.747 52.775 138.17 0 190.91z" fill="#f04dc5"/>
   <path d="m507.61 4.395c-5.859-5.859-15.352-5.86-21.211 0l-81.193 81.191c-5.859 5.859-5.859 15.352 0 21.211s15.352 5.859 21.211 0l81.193-81.191c5.859-5.859 5.859-15.352 0-21.211z" fill="#f04dc5"/>
   <path d="m505.5 91.357c-5.859-5.859-15.351-5.859-21.211 0l-41.411 41.396c-5.859 5.859-5.859 15.352 0 21.211s15.352 5.859 21.211 0l41.411-41.396c5.859-5.859 5.859-15.352 0-21.211z" fill="#f04dc5"/>
   <path d="m420.64 6.499c-5.859-5.859-15.352-5.859-21.211 0l-41.367 41.367c-5.859 5.859-5.859 15.352 0 21.211s15.351 5.859 21.211 0l41.367-41.367c5.859-5.859 5.859-15.352 0-21.211z" fill="#f04dc5"/>
  </g>
  <g transform="translate(-1.3539 3.5539)" fill="#f04dc5">
   <path d="m99.72 200.5c-1.8468-1.847-4.858-1.847-6.7051 0-1.8475 1.8476-1.8475 4.8573 0 6.7051 1.8526 1.8522 4.8532 1.8522 6.7051 0 1.8479-1.8479 1.8479-4.8576 0-6.7051z" stroke-width=".31612" fill="#f04dc5"/>
   <g transform="matrix(.31612 0 0 .31612 25.277 113.1)" fill="#f04dc5">
    <path d="m277.92 191.64c-40.944-40.944-107.56-40.93-148.49 0-40.942 40.942-40.942 107.55 0 148.49 39.639 39.639 108.79 39.668 148.49 0 41.054-41.054 41.043-107.45 0-148.49zm-21.21 127.28c-17.549 17.549-46.084 17.549-63.633 0-8.159-8.159-12.129-18.743-12.7-29.443-11.226-0.518-21.744-4.986-29.736-12.979-17.532-17.559-17.605-46.028 0.014-63.647 16.948-16.948 46.597-17.007 63.633 0 7.993 7.993 12.46 18.51 12.979 29.736 10.701 0.571 21.284 4.541 29.443 12.7 17.549 17.549 17.549 46.084 0 63.633z" fill="#f04dc5"/>
   </g>
   <path d="m86.307 187.09v-0.0101c-1.8701-1.8611-4.8622-1.8476-6.7003 0-1.8496 1.8402-1.8675 4.8326-0.0051 6.7051 1.8018 1.7966 4.909 1.7966 6.7054 0 1.8609-1.87 1.8475-4.862 0-6.7004z" stroke-width=".31612" fill="#f04dc5"/>
  </g>
 </g>
</svg>
