<svg width="46" height="60" version="1.1" viewBox="0 0 218.77 507.04" xmlns="http://www.w3.org/2000/svg">
 <g transform="translate(-133.22 8.1826)" stroke="#fff" stroke-width="16.368" fill="#f371d1">
  <path d="m242.61 0c-100.48 0-181.96 81.473-181.96 181.96 0 40.928 13.504 78.659 36.31 109.08l145.65 194.18 145.64-194.18c22.808-30.416 36.31-68.146 36.31-109.08 0-100.48-81.473-181.96-181.96-181.96z" stroke="#fef0fa" stroke-width="16.368" fill="#f371d1"/>
 </g>
 <ellipse cx="109.23" cy="190.92" rx="121.94" ry="122.25" fill="#fef0fa" stroke-width="1.6182"/>
 <g transform="matrix(1.158 0 0 1.158 23.239 104.93)" fill="#f04dc5">
  <polygon points="37.73 55.841 39.542 111.38 24.148 111.38 25.656 55.841"></polygon>
  <polygon points="148.51 129.79 148.51 136.13 0 136.13 0 129.79 6.338 129.79 6.338 120.74 15.394 120.74 15.394 114.4 133.12 114.4 133.12 120.74 142.17 120.74 142.17 129.79"></polygon>
  <polygon points="139.15 39.541 74.253 12.375 9.357 39.541 9.357 43.466 139.15 43.466"></polygon>
  <rect x="21.732" y="46.484" width="105.04" height="6.035"></rect>
  <polygon points="122.55 55.841 124.36 111.38 108.96 111.38 110.48 55.841"></polygon>
  <polygon points="94.477 55.841 96.289 111.38 80.592 111.38 82.102 55.841"></polygon>
  <polygon points="66.103 55.841 67.914 111.38 52.218 111.38 54.029 55.841"></polygon>
 </g>
</svg>
