<svg width="46" height="60" version="1.1" viewBox="0 0 218.77 507.04" xmlns="http://www.w3.org/2000/svg">
 <g transform="translate(-133.22 8.1826)" stroke="#fff" stroke-width="16.368" fill="#793d0e">
  <path d="m242.61 0c-100.48 0-181.96 81.473-181.96 181.96 0 40.928 13.504 78.659 36.31 109.08l145.65 194.18 145.64-194.18c22.808-30.416 36.31-68.146 36.31-109.08 0-100.48-81.473-181.96-181.96-181.96z" stroke="#cccccc" stroke-width="16.368" fill="#793d0e"/>
 </g>
 <ellipse cx="109.23" cy="190.92" rx="121.94" ry="122.25" fill="#562b0a" stroke-width="1.6182"/>
 <path d="m109.24 89.414c-55.975 0-101.51 45.533-101.51 101.51 0 55.97 45.533 101.5 101.51 101.5 55.97 0 101.5-45.533 101.5-101.5 0-55.981-45.533-101.51-101.5-101.51zm51.195 158.41h-34.146v-45.527h-34.146v45.527h-34.146v-119.51h34.146v45.527h34.146v-45.527h34.146z" stroke-width="5.6909" fill="#cccccc"/>
</svg>
