<svg width="46" height="60" version="1.1" viewBox="0 0 218.77 507.04" xmlns="http://www.w3.org/2000/svg">
 <g transform="translate(-133.22 8.1826)" stroke="#fff" stroke-width="16.368" fill="#793d0e">
  <path d="m242.61 0c-100.48 0-181.96 81.473-181.96 181.96 0 40.928 13.504 78.659 36.31 109.08l145.65 194.18 145.64-194.18c22.808-30.416 36.31-68.146 36.31-109.08 0-100.48-81.473-181.96-181.96-181.96z" stroke="#cccccc" stroke-width="16.368" fill="#793d0e"/>
 </g>
 <ellipse cx="109.23" cy="190.92" rx="121.94" ry="122.25" fill="#562b0a" stroke-width="1.6182"/>
 <g transform="matrix(.33631 0 0 .33631 23.134 104.83)" fill="#cccccc">
  <path d="m443.67 120.66h17.892v-30.082h-25.06v-25.402h-14.654l-0.387-0.984-0.387 0.984h-14.654v25.402h-107.77c-4.48-12.955-14.698-23.25-27.608-27.829v-32.669h29.079v-30.082h-88.241v30.082h29.079v32.669c-12.799 4.539-22.956 14.696-27.495 27.495h-107.88v-25.068h-14.654l-0.387-0.984-0.387 0.984h-14.655v25.068h-27.065v30.082h20.029l-68.176 173.34v2.852c0 49.766 40.487 90.254 90.253 90.254 49.767 0 90.254-40.487 90.254-90.254v-2.852l-68.176-173.34h100.84c4.539 12.799 14.696 22.956 27.495 27.495v273.93h-126.34v60.164h-31.085v30.083h344.94v-30.082h-31.085v-60.164h-126.34v-273.93c12.688-4.5 22.785-14.518 27.382-27.16h100.83l-68.044 173v2.852c0 49.766 40.487 90.254 90.254 90.254 49.766 0 90.253-40.487 90.253-90.254v-2.852l-68.044-173zm-299.99 160.81h-106.27l53.133-135.1 53.136 135.1zm224.65 0 53.135-135.1 53.134 135.1h-106.27z" fill="#cccccc"/>
 </g>
</svg>
