<svg width="46" height="60" version="1.1" viewBox="0 0 218.77 507.04" xmlns="http://www.w3.org/2000/svg">
 <g transform="translate(-133.22 8.1826)" stroke="#fff" stroke-width="16.368" fill="#ff931e">
  <path d="m242.61 0c-100.48 0-181.96 81.473-181.96 181.96 0 40.928 13.504 78.659 36.31 109.08l145.65 194.18 145.64-194.18c22.808-30.416 36.31-68.146 36.31-109.08 0-100.48-81.473-181.96-181.96-181.96z" stroke="#fffbf6" stroke-width="16.368" fill="#ff931e"/>
 </g>
 <ellipse cx="109.23" cy="190.92" rx="121.94" ry="122.25" fill="#fffbf6" stroke-width="1.6182"/>
 <path d="m188.69 122.77c2.4654-8.2716 2.0042-14.647-1.3896-19.129-4.0078-3.7918-9.7122-4.307-17.112-1.5546-7.3995 2.7574-14.029 7.4099-19.887 13.958l-18.497 20.681-76.882-20.55c-1.2335-0.43156-2.3894-0.0872-3.4679 1.033l-14.8 16.545c-0.84676 0.94901-1.1948 2.112-1.04 3.4906 0.23135 1.3803 0.88667 2.413 1.9656 3.1027l58.732 36.061-29.945 33.477-22.429-6.8488c-0.15371-0.0853-0.46103-0.13022-0.9241-0.13022-1.0794 0-1.9653 0.38712-2.6592 1.1635l-11.098 12.537c-0.77062 1.0317-1.1169 2.1097-1.0399 3.2288 0.15305 1.3786 0.65396 2.3698 1.5027 2.9742l29.133 24.426 21.85 32.57c0.69401 0.94965 1.6193 1.5071 2.7756 1.6822h0.23128c1.0793 0 1.965-0.38696 2.6592-1.1616l11.097-12.406c1.0019-1.2082 1.3104-2.5438 0.92573-4.0081l-6.128-25.074 29.944-33.479 32.257 65.666c0.46182 1.1206 1.2708 1.8094 2.4276 2.0682 0.23003 0.0871 0.50028 0.12862 0.80958 0.12862 0.92281 0 1.656-0.25893 2.1951-0.77492l14.802-12.408c1.3079-1.2058 1.7706-2.6261 1.3874-4.2636l-18.498-89.958 18.614-20.809c5.8561-6.5509 10.018-13.963 12.484-22.235z" stroke-width=".42816" fill="#f68000"/>
</svg>
