<svg width="46" height="60" version="1.1" viewBox="0 0 218.77 507.04" xmlns="http://www.w3.org/2000/svg">
 <g transform="translate(-133.22 8.1826)" stroke="#fff" stroke-width="16.368" fill="#ff931e">
  <path d="m242.61 0c-100.48 0-181.96 81.473-181.96 181.96 0 40.928 13.504 78.659 36.31 109.08l145.65 194.18 145.64-194.18c22.808-30.416 36.31-68.146 36.31-109.08 0-100.48-81.473-181.96-181.96-181.96z" stroke="#fffbf6" stroke-width="16.368" fill="#ff931e"/>
 </g>
 <ellipse cx="109.23" cy="190.92" rx="121.94" ry="122.25" fill="#fffbf6" stroke-width="1.6182"/>
 <path d="m200.08 154.64c-0.36659-0.97213-1.1233-1.7462-2.0866-2.1351l-16.188-6.5312c-1.0054-5.2294-4.9776-9.418-10.089-10.739l-0.8732-10.059c-0.1276-1.4718-1.1154-2.7282-2.5158-3.2002-1.4-0.47152-2.9466-0.0708-3.9393 1.0253l-4.1545 4.5829-2.5682-8.9871c-0.44242-1.5491-1.8332-2.6366-3.4439-2.6923-1.6201-0.0588-3.0736 0.93236-3.6223 2.4476l-19.186 52.932s-71.07 3.3176-71.099 3.3194c-14.574 0.87578-28.38-6.9221-35.164-19.867-0.95332-1.8175-3.1991-2.519-5.0162-1.5665-1.8179 0.95306-2.519 3.199-1.5665 5.0163 6.0653 11.573 16.808 19.716 29.125 22.679-1.2788 1.49-4.0261 5.1836-5.6327 10.991-1.7469 6.3132-2.3762 16.378 4.0468 29.158l-10.418 14.151c-0.6088 0.82588-0.84835 1.8673-0.66208 2.877l4.5855 24.863c0.32484 1.7621 1.8618 3.0417 3.6543 3.0417h4.6707c1.1018 0 2.1469-0.48921 2.8532-1.335 0.70588-0.84621 0.99999-1.9623 0.8027-3.0464l-2.9037-15.948 30.719-23.061c0.05535-0.0423-0.05324 0.0456 0 0 2.9374-2.4673 5.0696-5.1845 6.5946-7.9779 16.011 2.8106 37.922 6.6145 51.966 8.8759l6.1874 39.354c0.28437 1.8073 1.8415 3.1389 3.6709 3.1389h3.8432c2.0526 0 3.716-1.6636 3.716-3.716v-39.948c3.4885-2.3825 4.7356-6.3669 5.5623-10.269 0.027-0.12254 8.2669-38.157 8.2669-38.157 1.5533 0.25892 3.1219 0.39456 4.702 0.39456 10.882 0 20.847-6.3712 26.006-16.627 0.4664-0.9273 0.52344-2.0085 0.15676-2.9806z" stroke-width=".41288" fill="#f68000"/>
</svg>
