<svg width="60" height="60" version="1.1" viewBox="0 0 12.964 12.964" xmlns="http://www.w3.org/2000/svg">
 <circle cx="6.482" cy="6.482" r="6.35" fill="#fff" stroke="#b0a464" stroke-width=".26407"></circle>
 <path d="m12.029 7.4855-1.0261-1.004 1.0261-1.004c0.14886-0.13883 0.1984-0.31233 0.14886-0.52055-0.05947-0.20327-0.18835-0.32968-0.38678-0.37924l-1.3981-0.357 0.39417-1.3832c0.05936-0.20319 0.01247-0.37682-0.14135-0.52055-0.1437-0.15373-0.31725-0.20083-0.52058-0.14134l-1.383 0.39417-0.35708-1.3981c-0.049568-0.20333-0.17579-0.32971-0.37901-0.37927-0.20343-0.054595-0.3769-0.0073974-0.52058 0.14128l-1.004 1.0337-1.004-1.0337c-0.14378-0.15368-0.31728-0.20077-0.52055-0.14128-0.20327 0.049568-0.32968 0.17595-0.37924 0.37927l-0.357 1.3981-1.3832-0.39417c-0.20327-0.059518-0.37678-0.012398-0.52055 0.14134-0.1537 0.14373-0.20083 0.31723-0.14128 0.52055l0.39412 1.3832-1.3981 0.357c-0.1983 0.049568-0.32723 0.17595-0.38667 0.37924-0.049646 0.20822 0 0.38172 0.14871 0.52055l1.0262 1.004-1.0262 1.004c-0.14871 0.13878-0.19827 0.31233-0.14871 0.52045 0.05944 0.20333 0.18837 0.32971 0.38667 0.3793l1.3981 0.3569-0.39412 1.3832c-0.059544 0.20325-0.012425 0.3767 0.14128 0.52055 0.14378 0.15365 0.31728 0.20065 0.52055 0.1412l1.3832-0.39399 0.357 1.3981c0.049568 0.20325 0.17595 0.33213 0.37924 0.3866 0.20822 0.04955 0.38174 0 0.52055-0.14868l1.004-1.0263 1.004 1.0263c0.099135 0.10895 0.22551 0.16348 0.37912 0.16348 0.034852 0 0.081841-0.0049 0.14149-0.01477 0.20322-0.05954 0.32953-0.18842 0.37909-0.38669l0.3569-1.398 1.3831 0.39409c0.20335 0.05934 0.3769 0.01229 0.52058-0.14138 0.15373-0.14386 0.20083-0.31733 0.14135-0.52055l-0.39406-1.3832 1.398-0.35682c0.1985-0.049541 0.32728-0.17605 0.38678-0.37927 0.04957-0.2082 0-0.38174-0.14894-0.52055z" fill="#b0a464" stroke-width=".026047"/>
 <g transform="matrix(.014056 0 0 .014056 2.8832 2.8836)" fill="#fff">
  <path d="m32 271.69v192c0 17.664 14.368 32 32 32h160v-224z"/>
  <path d="m480 143.69h-101.25c7.264-4.96 13.504-9.888 17.856-14.304 25.824-25.952 25.824-68.192 0-94.144-25.088-25.28-68.8-25.216-93.856 0-13.888 13.92-50.688 70.592-45.6 108.45h-2.304c5.056-37.856-31.744-94.528-45.6-108.45-25.088-25.216-68.8-25.216-93.856 0-25.792 25.952-25.792 68.192-0.032 94.144 4.384 4.416 10.624 9.344 17.888 14.304h-101.25c-17.632 0-32 14.368-32 32v48c0 8.832 7.168 16 16 16h208v-64h64v64h208c8.832 0 16-7.168 16-16v-48c0-17.632-14.336-32-32-32zm-257.89-1.056s-1.344 1.056-5.92 1.056c-22.112 0-64.32-22.976-78.112-36.864-13.408-13.504-13.408-35.52 0-49.024 6.496-6.528 15.104-10.112 24.256-10.112 9.12 0 17.728 3.584 24.224 10.112 21.568 21.696 43.008 77.12 35.552 84.832zm73.664 1.056c-4.544 0-5.888-1.024-5.888-1.056-7.456-7.712 13.984-63.136 35.552-84.832 12.896-13.024 35.456-13.088 48.48 0 13.44 13.504 13.44 35.52 0 49.024-13.792 13.888-56 36.864-78.144 36.864z"/>
  <path d="m288 271.69v224h160c17.664 0 32-14.336 32-32v-192z"/>
 </g>
</svg>
