<svg width="60" height="60" version="1.1" viewBox="0 0 12.964 12.964" xmlns="http://www.w3.org/2000/svg">
 <circle cx="6.482" cy="6.482" r="6.35" fill="#fff" stroke="#b0a464" stroke-width=".26407"></circle>
 <path d="m10.967 5.1601c0.0019 0.029131-4.62e-4 0.058752-0.0091 0.088207l-0.60012 2.6112c-0.03013 0.13155-0.13875 0.22405-0.26346 0.22476l-3.6026 0.019778h-3.605c-0.12536 0-0.23459-0.092804-0.26488-0.22504l-0.59985-2.6211c-0.00689-0.030229-0.00891-0.060696-0.00714-0.090565-0.23235-0.079561-0.40135-0.31588-0.40135-0.59437 0-0.34361 0.25716-0.62313 0.57328-0.62313s0.57328 0.27952 0.57328 0.62313c0 0.19351-0.081598 0.36664-0.20929 0.48102l0.75192 0.82348c0.19004 0.20815 0.45374 0.32747 0.72353 0.32747 0.319 0 0.62315-0.16466 0.81468-0.44054l1.2357-1.7797c-0.10381-0.11276-0.16809-0.26856-0.16809-0.44035 0-0.34361 0.25716-0.62313 0.57328-0.62313s0.57328 0.27952 0.57328 0.62313c0 0.16664-0.060885 0.3179-0.15925 0.42982 3.251e-4 4.743e-4 7.314e-4 8.806e-4 0.0013 0.0015l1.2267 1.7846c0.19145 0.27853 0.49669 0.44482 0.8166 0.44482 0.27227 0 0.52829-0.11525 0.7208-0.32454l0.75649-0.82253c-0.13043-0.11434-0.21418-0.28913-0.21418-0.48502 0-0.34361 0.25715-0.62313 0.57328-0.62313s0.57329 0.27952 0.57329 0.62313c0 0.27105-0.16035 0.50159-0.38314 0.58713zm-0.66636 3.8737c0-0.16387-0.12222-0.29673-0.27298-0.29673h-7.0614c-0.15076 0-0.27299 0.13286-0.27299 0.29673v0.71214c0 0.16389 0.12222 0.29674 0.27299 0.29674h7.0614c0.15076 0 0.27298-0.13285 0.27298-0.29674z" fill="#b0a464" stroke-width=".037948"/>
</svg>
