<svg width="60" height="60" version="1.1" viewBox="0 0 12.964 12.964" xmlns="http://www.w3.org/2000/svg">
 <circle cx="6.482" cy="6.482" r="6.35" fill="#fff" stroke="#48d1cc" stroke-width=".26407"></circle>
 <path d="m12.029 7.4855-1.0261-1.004 1.0261-1.004c0.14886-0.13883 0.1984-0.31233 0.14886-0.52055-0.05947-0.20327-0.18835-0.32968-0.38678-0.37924l-1.3981-0.357 0.39417-1.3832c0.05936-0.20319 0.01247-0.37682-0.14135-0.52055-0.1437-0.15373-0.31725-0.20083-0.52058-0.14134l-1.383 0.39417-0.35708-1.3981c-0.049568-0.20333-0.17579-0.32971-0.37901-0.37927-0.20343-0.054595-0.3769-0.0073974-0.52058 0.14128l-1.004 1.0337-1.004-1.0337c-0.14378-0.15368-0.31728-0.20077-0.52055-0.14128-0.20327 0.049568-0.32968 0.17595-0.37924 0.37927l-0.357 1.3981-1.3832-0.39417c-0.20327-0.059518-0.37678-0.012398-0.52055 0.14134-0.1537 0.14373-0.20083 0.31723-0.14128 0.52055l0.39412 1.3832-1.3981 0.357c-0.1983 0.049568-0.32723 0.17595-0.38667 0.37924-0.049646 0.20822 0 0.38172 0.14871 0.52055l1.0262 1.004-1.0262 1.004c-0.14871 0.13878-0.19827 0.31233-0.14871 0.52045 0.05944 0.20333 0.18837 0.32971 0.38667 0.3793l1.3981 0.3569-0.39412 1.3832c-0.059544 0.20325-0.012425 0.3767 0.14128 0.52055 0.14378 0.15365 0.31728 0.20065 0.52055 0.1412l1.3832-0.39399 0.357 1.3981c0.049568 0.20325 0.17595 0.33213 0.37924 0.3866 0.20822 0.04955 0.38174 0 0.52055-0.14868l1.004-1.0263 1.004 1.0263c0.099135 0.10895 0.22551 0.16348 0.37912 0.16348 0.034852 0 0.081841-0.0049 0.14149-0.01477 0.20322-0.05954 0.32953-0.18842 0.37909-0.38669l0.3569-1.398 1.3831 0.39409c0.20335 0.05934 0.3769 0.01229 0.52058-0.14138 0.15373-0.14386 0.20083-0.31733 0.14135-0.52055l-0.39406-1.3832 1.398-0.35682c0.1985-0.049541 0.32728-0.17605 0.38678-0.37927 0.04957-0.2082 0-0.38174-0.14894-0.52055z" fill="#48d1cc" stroke-width=".026047"/>
 <path d="m9.6016 5.5302c0.00162 0.020985-3.237e-4 0.042305-0.00634 0.063518l-0.41701 1.8801c-0.020991 0.094716-0.096507 0.16132-0.18326 0.16183l-2.5067 0.014239h-2.5078c-0.087197 0-0.16319-0.066804-0.18426-0.16203l-0.41729-1.8872c-0.0048-0.021771-0.00617-0.043713-0.00487-0.065215-0.16172-0.057279-0.27928-0.22743-0.27928-0.42794 0-0.2474 0.1789-0.44866 0.3988-0.44866 0.21991 0 0.39881 0.20126 0.39881 0.44866 0 0.13933-0.056784 0.26398-0.14559 0.34634l0.52307 0.59291c0.13219 0.14987 0.31564 0.23578 0.50333 0.23578 0.22191 0 0.43349-0.11856 0.56673-0.31719l0.85964-1.2814c-0.072216-0.081189-0.11693-0.19337-0.11693-0.31705 0-0.2474 0.1789-0.44866 0.39881-0.44866s0.3988 0.20126 0.3988 0.44866c0 0.11998-0.042374 0.22889-0.11077 0.30947 2.309e-4 3.417e-4 5.001e-4 6.353e-4 8.258e-4 0.00119l0.85339 1.2849c0.13319 0.20054 0.34553 0.32027 0.56808 0.32027 0.1894 0 0.36751-0.082979 0.50143-0.23367l0.5263-0.59231c-0.090713-0.082326-0.14898-0.20817-0.14898-0.34921 0-0.2474 0.17889-0.44866 0.3988-0.44866 0.2199 0 0.3988 0.20125 0.3988 0.44866 0 0.19516-0.11153 0.36114-0.26651 0.42273zm-0.46356 2.7891c0-0.11799-0.085016-0.21365-0.18991-0.21365h-4.9123c-0.10488 0-0.1899 0.095655-0.1899 0.21365v0.51274c0 0.11801 0.085007 0.21366 0.1899 0.21366h4.9123c0.10488 0 0.18991-0.095643 0.18991-0.21366z" fill="#fff" stroke-width=".026857"/>
</svg>
