<svg width="60" height="60" version="1.1" viewBox="0 0 12.964 12.964" xmlns="http://www.w3.org/2000/svg">
 <circle cx="6.482" cy="6.482" r="6.35" fill="#fff" stroke="#48d1cc" stroke-width=".26407"></circle>
 <path d="m12.029 7.4855-1.0261-1.004 1.0261-1.004c0.14886-0.13883 0.1984-0.31233 0.14886-0.52055-0.05947-0.20327-0.18835-0.32968-0.38678-0.37924l-1.3981-0.357 0.39417-1.3832c0.05936-0.20319 0.01247-0.37682-0.14135-0.52055-0.1437-0.15373-0.31725-0.20083-0.52058-0.14134l-1.383 0.39417-0.35708-1.3981c-0.049568-0.20333-0.17579-0.32971-0.37901-0.37927-0.20343-0.054595-0.3769-0.0073974-0.52058 0.14128l-1.004 1.0337-1.004-1.0337c-0.14378-0.15368-0.31728-0.20077-0.52055-0.14128-0.20327 0.049568-0.32968 0.17595-0.37924 0.37927l-0.357 1.3981-1.3832-0.39417c-0.20327-0.059518-0.37678-0.012398-0.52055 0.14134-0.1537 0.14373-0.20083 0.31723-0.14128 0.52055l0.39412 1.3832-1.3981 0.357c-0.1983 0.049568-0.32723 0.17595-0.38667 0.37924-0.049646 0.20822 0 0.38172 0.14871 0.52055l1.0262 1.004-1.0262 1.004c-0.14871 0.13878-0.19827 0.31233-0.14871 0.52045 0.05944 0.20333 0.18837 0.32971 0.38667 0.3793l1.3981 0.3569-0.39412 1.3832c-0.059544 0.20325-0.012425 0.3767 0.14128 0.52055 0.14378 0.15365 0.31728 0.20065 0.52055 0.1412l1.3832-0.39399 0.357 1.3981c0.049568 0.20325 0.17595 0.33213 0.37924 0.3866 0.20822 0.04955 0.38174 0 0.52055-0.14868l1.004-1.0263 1.004 1.0263c0.099135 0.10895 0.22551 0.16348 0.37912 0.16348 0.034852 0 0.081841-0.0049 0.14149-0.01477 0.20322-0.05954 0.32953-0.18842 0.37909-0.38669l0.3569-1.398 1.3831 0.39409c0.20335 0.05934 0.3769 0.01229 0.52058-0.14138 0.15373-0.14386 0.20083-0.31733 0.14135-0.52055l-0.39406-1.3832 1.398-0.35682c0.1985-0.049541 0.32728-0.17605 0.38678-0.37927 0.04957-0.2082 0-0.38174-0.14894-0.52055z" fill="#48d1cc" stroke-width=".026047"/>
 <g transform="matrix(.11653 0 0 .11653 2.8831 2.8835)" fill="#fff">
  <g fill="#fff">
   <path d="m45.655 43.718s-0.038 0.04-0.107 0.107c-3.965-1.587-8.39-0.422-11.851-3.527-3.498-3.137-6.139-8.059-9.034-11.783-3.185-4.1-6.469-8.122-9.807-12.097-2.375-2.826-4.553-6.097-7.6-8.239-0.431-0.846-0.821-1.197-1.513-0.698-0.32 0.072-0.567 0.328-0.67 0.64-0.393 0.445-0.861 1.071-1.441 1.917-3.944 5.765-4.551 10.771-2.427 16.537 2.124 5.765 1.669 26.094 1.669 26.094s0.911 1.213 1.821 0.606c0.911-0.606-1.213-19.874 0.456-22.15 0 0 7.13-3.945 13.199 9.558 6.069 13.502 8.951 13.805 13.199 13.805 4.249 0 16.689 0.304 25.791-1.366 9.101-1.668 3.639-5.005-11.685-9.404zm-13.804 2.275c-5.462-6.372-18.661-28.37-21.998-32.921-0.061-0.082-0.117-0.165-0.174-0.247 1.79 2.008 3.384 4.277 5.002 6.203 4.026 4.793 7.906 9.709 11.707 14.681 2.253 2.947 4.195 6.237 6.973 8.728 3.055 2.741 7.051 1.677 10.633 2.753-2.714 2.149-8.185 5.422-12.143 0.803z" fill="#fff"/>
  </g>
 </g>
</svg>
