<svg width="46" height="60" version="1.1" viewBox="0 0 218.77 507.04" xmlns="http://www.w3.org/2000/svg">
 <g transform="translate(-133.22 8.1826)" stroke="#fff" stroke-width="16.368" fill="#6c5d53">
  <path d="m242.61 0c-100.48 0-181.96 81.473-181.96 181.96 0 40.928 13.504 78.659 36.31 109.08l145.65 194.18 145.64-194.18c22.808-30.416 36.31-68.146 36.31-109.08 0-100.48-81.473-181.96-181.96-181.96z" stroke="#fff" stroke-width="16.368" fill="#6c5d53"/>
 </g>
 <ellipse cx="109.23" cy="190.92" rx="121.94" ry="122.25" fill="#564a42" stroke-width="1.6182"/>
 <path d="m76.336 101.33v44.093c0 2.2396-2.1929 4.4327-4.4325 4.4327s-4.4326-2.193-4.4326-4.4327v-43.393c-7.4657 0.7466-11.198 1.6332-11.198 1.6332s-3.0329 34.201-3.0329 54.358c0 22.396 22.396 22.536 22.396 31.495 0 7.4658-7.4657 53.658-7.4657 76.056 0 8.2122 6.7189 14.931 14.932 14.931 8.212 0 14.931-6.7194 14.931-14.931 0-22.396-7.4656-68.775-7.4656-76.986 0-8.212 22.396-8.1651 22.396-30.562 0-12.691-2.3329-54.358-2.3329-54.358s-3.6861-0.88652-11.898-1.633v44.093c0 2.2396-2.193 4.4326-4.4326 4.4326-2.986 0-4.4326-2.1929-4.4326-4.4326v-44.792h-6.7654zm88.885 0c-14.931 0-37.328 44.792-37.328 85.856 0 0 18.663 13.438 18.663 26.129 0 23.143-11.198 35.834-11.198 52.259 0 8.2118 6.7188 14.931 14.931 14.931 8.212 0 14.931-6.7192 14.931-14.931z" stroke-width="7.4657" fill="#e3dedb"/>
</svg>
