<svg width="46" height="60" version="1.1" viewBox="0 0 218.77 507.04" xmlns="http://www.w3.org/2000/svg">
 <g transform="translate(-133.22 8.1826)" stroke="#fff" stroke-width="16.368" fill="#297c4e">
  <path d="m242.61 0c-100.48 0-181.96 81.473-181.96 181.96 0 40.928 13.504 78.659 36.31 109.08l145.65 194.18 145.64-194.18c22.808-30.416 36.31-68.146 36.31-109.08 0-100.48-81.473-181.96-181.96-181.96z" stroke="#cccccc" stroke-width="16.368" fill="#297c4e"/>
 </g>
 <ellipse cx="109.23" cy="190.92" rx="121.94" ry="122.25" fill="#1f5f3b" stroke-width="1.6182"/>
 <path d="m22.314 254.03c0-6.5776 0.26298-12.645 0.58452-13.482 0.68894-1.7953 4.3129-2.0189 5.964-0.36785 0.63559 0.63549 1.1556 2.8026 1.1556 4.8148v3.6596h63.449l0.29612-3.9948c0.34292-4.6281 2.6145-6.7694 5.352-5.0452 1.4414 0.90728 1.7239 2.8933 1.9542 13.718l0.26857 12.657h-7.7601v-11.556h-63.56v11.556h-7.7043zm90.099 9.8186c-1.1857-1.6928-1.4992-4.9948-1.4992-15.786v-13.644l3.6109-0.44552c1.9865-0.24431 4.5868-0.0858 5.7782 0.35231 2.1069 0.77552 2.167 1.1728 2.167 14.366 0 7.5128-0.44484 14.402-0.99673 15.434-1.4503 2.7097-7.0892 2.5371-9.0603-0.27811zm57.279 0.27735c-0.54837-1.0249-0.99733-6.0546-0.99733-11.178 0-8.0984 0.19893-9.2393 1.5233-8.7309 0.8378 0.32214 2.5717 0.58496 3.8525 0.58496 2.3216 0 2.3284 0.0346 2.3284 10.593v10.593h-2.8551c-1.837 0-3.2103-0.66422-3.8519-1.8626zm-135.17-21.877c-1.4767-1.4769-0.64211-7.0173 1.206-8.0062 1.1437-0.61232 11.296-0.99657 26.3-0.99657 27.335 0 28.068 0.15465 27.528 5.8202l-0.31666 3.3284-27.03 0.25512c-14.867 0.14088-27.327-0.0363-27.687-0.4009zm133.48-3.141c-1.7065-1.0716-3.6524-2.829-4.3247-3.9054-0.94144-1.507-2.2418-1.9564-5.6635-1.9564-5.3433 0-9.9868-2.8223-12.534-7.6174-2.0164-3.7953-1.6622-4.9025 1.5698-4.9025 3.9677 0 12.474-3.7156 16.609-7.2551 9.3298-7.9852 12.128-22.282 6.575-33.591l-2.797-5.6968 2.1816-1.7665c1.1997-0.97166 3.02-1.7666 4.0443-1.7666 2.4998 0 6.5912 4.221 6.5912 6.8002 0 1.6214 0.36726 1.9077 1.6848 1.3136 7.362-3.3146 14.016 3.6124 11.232 11.692-0.73766 2.14-0.91825 3.9215-0.4162 4.094 5.8375 2.0062 12.538 11.782 12.538 18.294 0 8.4892-4.6789 15.918-12.277 19.494-2.5168 1.184-5.9792 3.4701-7.6946 5.0804-4.1474 3.8907-12.513 4.7072-17.318 1.6898zm-133.49-8.4298c-1.4648-1.465-0.61814-7.0074 1.2208-7.9914 2.5108-1.3437 49.62-1.3437 52.13 0 1.8476 0.98887 2.4153 4.147 1.2781 7.1095-0.51331 1.3388-3.8261 1.5235-27.286 1.5235-14.686 0-26.99-0.2891-27.343-0.64166zm75.465-2.3555c-3.8672-1.5438-8.6097-5.573-11.013-9.3582-1.6668-2.6242-3.5029-3.9729-7.1306-5.2389-7.0235-2.4514-14.628-9.7418-18.02-17.275-5.6719-12.6-2.7206-27.463 7.3182-36.852 2.5522-2.3878 6.1589-5.0652 8.0151-5.95l3.3748-1.6092-2.0055-2.8175c-3.9604-5.5618-2.1232-14.554 3.7096-18.161 3.4165-2.1115 10.354-2.7985 14.519-1.4378 2.0374 0.66605 2.1667 0.44152 2.1667-3.7645 0-3.6593 0.5116-4.9841 2.8148-7.2873 3.0629-3.063 6.324-3.5576 11.517-1.7477 3.6986 1.289 5.8928 5.1633 5.8928 10.404 0 3.7101 0.15625 3.9052 3.9657 4.931 7.5329 2.0284 15.268 12.025 15.289 19.759 0.011 1.3797 1.0224 2.3408 3.3852 3.1956 5.6362 2.0376 7.9693 9.1288 4.6645 14.173-1.5542 2.3713-1.505 2.5022 2.3716 6.3395 10.703 10.599 8.7159 27.998-4.1044 35.926-3.9818 2.4622-5.7436 2.9299-11.356 3.015-6.3109 0.0957-6.7147 0.23941-8.0826 2.8894-3.8142 7.3874-11.412 11.973-19.678 11.876-2.8788-0.0346-6.304-0.4882-7.6124-1.0101zm-60.114-49.026c-2.2062-5.5149-2.0483-7.8937 0.49866-7.5114 2.1783 0.32726 5.8424 7.852 4.9527 10.17-1.0024 2.612-3.9096 1.1934-5.4514-2.659zm-25.287-0.48794c-0.7628-1.9877 4.3029-9.1236 6.477-9.1236 3.0271 0 3.0077 1.7811-0.06887 6.2519-3.0536 4.4389-5.4032 5.4913-6.4084 2.8716zm15.689-11.067c-7.4706-2.2654-11.287-10.655-7.8607-17.28 6.2211-12.031 23.596-8.3018 23.61 5.0667 0.01016 8.6987-7.6796 14.661-15.749 12.213zm22.565-7.5462c-2.6497-0.76593-3.303-1.9575-2.1079-3.8455 0.63359-1.0011 2.0053-1.1087 6.0033-0.47233 4.2556 0.67692 5.182 1.1672 5.182 2.7418 0 1.5169-0.70333 1.9514-3.3706 2.0842-1.8539 0.0912-4.422-0.13727-5.7067-0.50814zm-45.816-5.7985c-3.01-0.46984-3.8524-1.0234-3.8524-2.5276 0-1.5112 0.73756-1.988 3.4249-2.2139 4.6949-0.39492 8.8391 1.2859 8.4324 3.4202-0.35866 1.882-2.3339 2.2076-8.005 1.3213zm35.151-15.236c0-2.5698 4.9448-9.0764 6.6481-8.7485 2.4953 0.48075 2.3142 3.382-0.43646 6.9884-2.7291 3.5783-6.2117 4.5649-6.2117 1.76zm-20.573-4.4177c-2.1859-5.7234-2.062-7.6383 0.4697-7.2573 1.4321 0.21511 2.5904 1.7006 3.8643 4.9543 1.953 4.9882 1.7244 6.4278-1.0203 6.4278-1.1601 0-2.2625-1.372-3.3137-4.1246z" stroke-width=".96303" fill="#cccccc"/>
</svg>
