<svg width="46" height="60" version="1.1" viewBox="0 0 218.77 507.04" xmlns="http://www.w3.org/2000/svg">
 <g transform="translate(-133.22 8.1826)" stroke="#fff" stroke-width="16.368" fill="#48d1cc">
  <path d="m242.61 0c-100.48 0-181.96 81.473-181.96 181.96 0 40.928 13.504 78.659 36.31 109.08l145.65 194.18 145.64-194.18c22.808-30.416 36.31-68.146 36.31-109.08 0-100.48-81.473-181.96-181.96-181.96z" stroke="#f4fcfc" stroke-width="16.368" fill="#48d1cc"/>
 </g>
 <ellipse cx="109.23" cy="190.92" rx="121.94" ry="122.25" fill="#f4fcfc" stroke-width="1.6182"/>
 <g transform="matrix(.31902 0 0 .31902 16.286 97.977)" fill="#31c1bc">
  <g id="Layer_1_21_" fill="#31c1bc">
   <path d="m518.29 545.7-85.425-155.55c24.225-3.825 42.074-25.5 42.074-49.726v-229.5c0-61.199-49.725-110.92-110.92-110.92h-145.35c-61.2 0-112.2 49.725-112.2 112.2v228.22c0 25.5 17.85 45.9 42.075 49.726l-84.15 155.55c-6.375 12.75-2.55 28.05 10.2 34.425 3.825 2.55 7.65 2.55 11.475 2.55 8.925 0 17.85-5.1 21.675-12.75l7.65-12.75h351.9l7.649 12.75c5.101 8.925 12.75 12.75 21.676 12.75 3.824 0 7.649-1.274 11.475-2.55 12.75-6.375 16.576-21.675 10.201-34.425zm-119.85-114.75h-214.2l21.675-39.525h170.85zm-3.824-85.425c-20.4 0-36.976-16.575-36.976-36.976 0-20.4 16.575-36.975 36.976-36.975 20.399 0 36.975 16.575 36.975 36.975-1e-3 19.126-16.576 36.976-36.975 36.976zm-243.53-219.3c0-39.525 31.875-71.4 70.125-71.4h138.98c38.25 0 71.4 31.875 71.4 71.4v61.2c0 14.025-11.475 24.225-25.5 24.225h-229.5c-14.025 0-24.225-11.475-24.225-24.225l-1.275-61.2zm36.975 144.08c20.4 0 36.975 16.575 36.975 36.976 0 20.399-16.575 36.975-36.975 36.975s-36.975-16.575-36.975-36.975c0-20.401 16.576-36.976 36.975-36.976zm-52.274 248.62 28.05-49.725h255l28.05 49.725z" fill="#31c1bc"/>
  </g>
 </g>
</svg>
