<svg width="46" height="60" version="1.1" viewBox="0 0 218.77 507.04" xmlns="http://www.w3.org/2000/svg">
 <g transform="translate(-133.22 8.1826)" stroke="#fff" stroke-width="16.368" fill="#800080">
  <path d="m242.61 0c-100.48 0-181.96 81.473-181.96 181.96 0 40.928 13.504 78.659 36.31 109.08l145.65 194.18 145.64-194.18c22.808-30.416 36.31-68.146 36.31-109.08 0-100.48-81.473-181.96-181.96-181.96z" stroke="#ffa7ff" stroke-width="16.368" fill="#800080"/>
 </g>
 <ellipse cx="109.23" cy="190.92" rx="121.94" ry="122.25" fill="#590059" stroke-width="1.6182"/>
 <g transform="matrix(.3581 0 0 .3581 23.199 99.247)" fill="#ffa7ff">
  <path d="m385.63 200.11 94.863-33.512-58.852-166.59-95.191 33.629z" fill="#ffa7ff"/>
  <path d="m81.145 156.98-81.145 28.664 35.801 101.35 81.348-28.734z" fill="#ffa7ff"/>
  <path d="m303.39 250.28c0-12.355-4.707-23.633-12.414-32.141l61.418-21.695-49.449-139.12-200.16 70.711 49.453 139.11 55.434-19.582c-0.0508 0.89844-0.0781 1.8008-0.0781 2.7109 0 9.1523 2.582 17.707 7.0508 24.988l-87.273 236.73h32.062l18.98-51.484h62.035v51.484h30.086v-51.484h62.273l18.977 51.484h32.066l-87.363-236.97c4.3789-7.2266 6.9062-15.699 6.9062-24.746zm-62.945 180.15h-50.941l49.797-135.07c0.37891 0.13672 0.76172 0.26172 1.1445 0.38672zm81.266 0h-51.18v-134.68c0.45312-0.14844 0.91016-0.29688 1.3594-0.46094z" fill="#ffa7ff"/>
 </g>
</svg>
