<svg width="46" height="60" version="1.1" viewBox="0 0 218.77 507.04" xmlns="http://www.w3.org/2000/svg">
 <g transform="translate(-133.22 8.1826)" stroke="#fff" stroke-width="16.368" fill="#008080">
  <path d="m242.61 0c-100.48 0-181.96 81.473-181.96 181.96 0 40.928 13.504 78.659 36.31 109.08l145.65 194.18 145.64-194.18c22.808-30.416 36.31-68.146 36.31-109.08 0-100.48-81.473-181.96-181.96-181.96z" stroke="#80ffff" stroke-width="16.368" fill="#008080"/>
 </g>
 <ellipse cx="109.23" cy="190.92" rx="121.94" ry="122.25" fill="#005959" stroke-width="1.6182"/>
 <path d="m196.35 163.06h-13.357c-1.0178 0-1.9955 0.40605-2.7299 1.1328l-2.8516 2.8205c-4.8056-11.483-11.701-22.838-21.014-34.595-5.0351-6.3517-12.48-9.9946-20.429-9.9946h-53.48c-7.9491 0-15.395 3.6431-20.427 9.9946-9.6063 12.126-16.364 23.208-21.058 34.553l-2.8088-2.7787c-0.73409-0.7269-1.7124-1.1328-2.7298-1.1328h-13.357c-2.1791 0-3.9452 1.8237-3.9452 4.0732v9.4296c0 2.1501 1.6191 3.93 3.6971 4.0655l13.729 0.89276c-2.0743 6.2591-3.6943 15.585-3.6943 28.739 0 11.414 2.2076 18.914 6.0495 23.77v21.972c0 1.8837 1.4793 3.4111 3.3047 3.4111h15.197c1.8253 0 3.3047-1.5274 3.3047-3.4111v-13.644h98.956v13.644c0 1.8837 1.4798 3.4111 3.3042 3.4111h15.197c1.8254 0 3.3051-1.5274 3.3051-3.4111v-21.972c3.8411-4.856 6.0496-12.356 6.0496-23.77 0-13.153-1.6199-22.48-3.6943-28.739l13.729-0.89276c2.0775-0.13577 3.6967-1.9153 3.6967-4.0655v-9.4296c0-2.2495-1.7655-4.0732-3.9446-4.0732zm-123.01-21.118c2.2546-2.8458 5.5901-4.4788 9.1509-4.4788h53.48c3.56 0 6.8973 1.6331 9.1515 4.4788 6.5156 8.2241 11.661 16.095 15.638 23.934l-103.15 0.0168c3.8893-7.6656 9.0641-15.543 15.729-23.954zm-11.241 83.729c-7.5635 0-13.696-2.5508-13.696-8.7388 0-6.1877 2.225-11.206 9.7893-11.206 7.5643 0 17.601 5.0182 17.601 11.206 0 6.1876-6.1317 8.7388-13.695 8.7388zm61.486-1.2892h-28.71c-4.3285 0-7.8497-3.6359-7.8497-8.1045 0-1.2535 0.98441-2.2702 2.199-2.2702h40.013c1.2146 0 2.1982 1.0167 2.1982 2.2702 0 4.469-3.521 8.1045-7.8494 8.1045zm32.776 1.2892c-7.5647 0-13.696-2.5508-13.696-8.7388 0-6.1877 10.039-11.206 17.601-11.206 7.5638 0 9.7884 5.0182 9.7884 11.206 0 6.1876-6.1304 8.7388-13.695 8.7388z" stroke-width=".4286" fill="#80ffff"/>
</svg>
