<svg width="46" height="60" version="1.1" viewBox="0 0 218.77 507.04" xmlns="http://www.w3.org/2000/svg">
 <g transform="translate(-133.22 8.1826)" stroke="#fff" stroke-width="16.368" fill="#56db40">
  <path d="m242.61 0c-100.48 0-181.96 81.473-181.96 181.96 0 40.928 13.504 78.659 36.31 109.08l145.65 194.18 145.64-194.18c22.808-30.416 36.31-68.146 36.31-109.08 0-100.48-81.473-181.96-181.96-181.96z" stroke="#f7fdf6" stroke-width="16.368" fill="#56db40"/>
 </g>
 <ellipse cx="109.23" cy="190.92" rx="121.94" ry="122.25" fill="#f7fdf6" stroke-width="1.6182"/>
 <path d="m73.233 110.93c-24.263 0-43.993 19.731-43.993 43.993v3.9996h15.998v-3.9996c0-15.731 12.264-27.996 27.996-27.996 12.838 0 23.307 8.1931 26.747 19.748-1.1158-0.58078-2.3088-1.0476-3.4993-1.4997-0.84963-0.3326-1.6176-0.73645-2.4998-0.99984-0.33213-0.0962-0.66329-0.16415-0.99971-0.25008-2.4689-0.64978-5.0856-0.99985-7.749-0.99985-10.665 0-20.353 5.3072-26.496 13.498l12.998 9.7489c3.4555-4.6072 8.1652-7.2489 13.498-7.2489 9.5203 0 15.998 6.4776 15.998 15.998v7.999h15.998v-7.999c0-9.5201 6.4774-15.998 15.998-15.998 3.9994 0 7.716 1.5628 10.749 4.2494 1.0107 0.89552 1.8858 1.8478 2.7496 2.9995l12.998-9.7489c-6.1431-8.1909-15.831-13.498-26.496-13.498-2.0315 0-4.0758 0.11153-5.999 0.49994-0.60895 0.1135-1.1532 0.35266-1.7498 0.49991-0.52487 0.13832-0.98528 0.33656-1.4996 0.4999-1.5482 0.46499-3.0592 1.0681-4.4995 1.7498-0.32983 0.15931-0.67605 0.33146-0.99973 0.49994 3.439-11.554 13.908-19.748 26.747-19.748 15.731 0 27.996 12.264 27.996 27.996v3.9996h15.998v-3.9996c0-24.263-19.731-43.993-43.993-43.993-14.9 0-27.824 7.6092-35.745 18.997-7.9496-11.452-21.275-18.997-36.245-18.997zm-11.998 79.989v15.998h9.9986c5.1035 11.548 19.928 23.996 37.995 23.996 18.067 0 32.891-12.448 37.995-23.996h9.9986v-15.998zm31.995 47.993v7.9987h-63.991l3.9994 12.749c2.3996 6.3994 8.0485 11.248 15.247 11.248h121.49c7.1989 0 12.848-4.8492 15.247-11.248l3.9994-12.749h-63.991v-7.9987h-31.995z" stroke-width="7.9989" fill="#3ecd27"/>
</svg>
