<svg width="46" height="60" version="1.1" viewBox="0 0 218.77 507.04" xmlns="http://www.w3.org/2000/svg">
 <g transform="translate(-133.22 8.1826)" stroke="#fff" stroke-width="16.368" fill="#d45500">
  <path d="m242.61 0c-100.48 0-181.96 81.473-181.96 181.96 0 40.928 13.504 78.659 36.31 109.08l145.65 194.18 145.64-194.18c22.808-30.416 36.31-68.146 36.31-109.08 0-100.48-81.473-181.96-181.96-181.96z" stroke="#fff" stroke-width="16.368" fill="#d45500"/>
 </g>
 <ellipse cx="109.23" cy="190.92" rx="121.94" ry="122.25" fill="#ad4500" stroke-width="1.6182"/>
 <path d="m168.72 175.34c-1.5008 0-2.9768 0.1-4.4305 0.26637l-9.1362-30.003c0.89201-0.99772 1.4343-2.2923 1.4343-3.7096 0-3.1498-2.6622-5.7051-5.946-5.7051h-24.527c-3.2832 0-5.946 2.5551-5.946 5.7051 0 3.1498 2.6631 5.704 5.946 5.704h15.534l-6.3153 9.6444c-0.27938-0.0368-0.56518-0.0546-0.85158-0.0489l-53.099 0.73909c1.3152-1.0466 2.1543-2.627 2.1543-4.3941 0-3.1496-2.6625-5.7042-5.9462-5.7042h-14.324c-3.2839 0-5.9463 2.5545-5.9463 5.7042 0 3.1498 2.6625 5.7042 5.9463 5.7042h1.0691c0.14308 0.51108 0.35849 1.0113 0.6599 1.4855l2.3879 3.7701-6.5912 12.474c-3.4867-1.0601-7.197-1.6355-11.045-1.6355-20.208 6.3e-4 -36.649 15.772-36.649 35.16 0 19.387 16.441 35.159 36.649 35.159 17.452 0 32.083-11.767 35.753-27.462l19.61 1.0886c0.11527 7e-3 0.23012 0.0108 0.34412 0.0108 2.0363 0 3.9423-1.0027 5.0339-2.67l36.794-56.186 5.5912 18.36c-12.296 5.6809-20.802 17.755-20.802 31.7 0 19.387 16.44 35.159 36.649 35.159s36.65-15.772 36.65-35.159c0-19.388-16.442-35.16-36.65-35.16zm-94.066 0.6379 19.818 31.29-8.2773-0.45925c-1.1032-10.102-6.6869-18.941-14.802-24.659zm-49.662 34.522c0-13.096 11.106-23.752 24.757-23.752 1.9112 0 3.7709 0.21563 5.5589 0.61115l-10.862 20.561c-0.90683 1.7154-0.85094 3.7541 0.14917 5.4226 1.0001 1.6679 2.8087 2.7393 4.8109 2.8505l23.994 1.332c-3.1306 9.6771-12.549 16.724-23.651 16.724-13.65 0-24.757-10.655-24.757-23.751zm34.165-5.1922 6.7513-12.778c4.1662 3.4533 7.1219 8.2102 8.171 13.607zm46.371-2.552-21.187-33.453 43.49-0.60479zm63.195 31.495c-13.651 0-24.757-10.655-24.757-23.751 0-8.7471 4.9572-16.399 12.314-20.52l6.7362 22.119c0.92158 3.0247 4.2249 4.7609 7.374 3.8768 3.1526-0.88361 4.9612-4.0516 4.0402-7.0746l-6.7369-22.127c0.34183-0.015 0.68467-0.0274 1.0302-0.0274 13.651 0 24.757 10.654 24.757 23.751 0 13.096-11.105 23.751-24.757 23.751z" stroke-width=".58239" fill="#ffe5d4"/>
</svg>
