<svg width="46" height="60" version="1.1" viewBox="0 0 218.77 507.04" xmlns="http://www.w3.org/2000/svg">
 <g transform="translate(-133.22 8.1826)" stroke="#fff" stroke-width="16.368" fill="#d45500">
  <path d="m242.61 0c-100.48 0-181.96 81.473-181.96 181.96 0 40.928 13.504 78.659 36.31 109.08l145.65 194.18 145.64-194.18c22.808-30.416 36.31-68.146 36.31-109.08 0-100.48-81.473-181.96-181.96-181.96z" stroke="#fff" stroke-width="16.368" fill="#d45500"/>
 </g>
 <ellipse cx="109.23" cy="190.92" rx="121.94" ry="122.25" fill="#ad4500" stroke-width="1.6182"/>
 <g transform="matrix(2.4169 0 0 2.4169 13.113 94.803)" fill="#ffe5d4">
  <path d="m79.536 61.441h-79.536l3.946-6.846 12.285-21.284c2.175-3.76 5.722-3.76 7.889 0 0 0 2.853 4.942 3.197 5.52 1.634-2.825 10.341-17.916 10.341-17.916 2.18-3.76 5.725-3.76 7.894 0l17.301 29.968c0.891-1.548 1.771-3.064 2.443-4.256 1.574-2.713 4.127-2.713 5.707 0 1.563 2.724 4.127 7.166 5.701 9.869z" fill="#ffe5d4"/>
 </g>
</svg>
