<svg width="46" height="60" version="1.1" viewBox="0 0 218.77 507.04" xmlns="http://www.w3.org/2000/svg">
 <g transform="translate(-133.22 8.1826)" stroke="#fff" stroke-width="16.368" fill="#a08844">
  <path d="m242.61 0c-100.48 0-181.96 81.473-181.96 181.96 0 40.928 13.504 78.659 36.31 109.08l145.65 194.18 145.64-194.18c22.808-30.416 36.31-68.146 36.31-109.08 0-100.48-81.473-181.96-181.96-181.96z" stroke="#fff" stroke-width="16.368" fill="#a08844"/>
 </g>
 <ellipse cx="109.23" cy="190.92" rx="121.94" ry="122.25" fill="#847138" stroke-width="1.6182"/>
 <path d="m109.23 94.956v15.059h30.12l-7.5298-7.5297 7.5298-7.5298zm0 22.589 52.709 52.709v15.059s1.8373 7.5299 11.294 7.5299 11.294-7.5299 11.294-7.5299v-15.059zm0 0 7.5297 52.709v15.059s3.7348 7.5299 15.059 7.5299c11.325 0 15.059-7.5299 15.059-7.5299v-15.059zm0 0-37.649 52.709v15.059s3.7348 7.5299 15.059 7.5299c11.325 0 15.059-7.5299 15.059-7.5299v-15.059zm0 0-75.297 52.709v15.059s1.8373 7.5299 11.294 7.5299c9.4569 0 11.294-7.5299 11.294-7.5299v-15.059zm-45.179 75.298s-7.4695 7.5298-18.824 7.5298c-1.6189 0-3.0928-0.192-4.4709-0.47062l-6.8238 53.179h52.709l7.5297-30.12h30.12l7.5297 30.12h52.709l-6.824-53.179c-1.378 0.27862-2.8518 0.47062-4.4707 0.47062-13.08 0-18.824-7.5298-18.824-7.5298s-8.6441 7.5298-22.589 7.5298c-12.026 0-22.589-7.5298-22.589-7.5298s-10.625 7.5298-22.589 7.5298c-13.749 0-22.589-7.5298-22.589-7.5298z" stroke-width="7.5297" fill="#f7f4ec"/>
</svg>
