<svg width="46" height="60" version="1.1" viewBox="0 0 218.77 507.04" xmlns="http://www.w3.org/2000/svg">
 <g transform="translate(-133.22 8.1826)" stroke="#fff" stroke-width="16.368" fill="#a08844">
  <path d="m242.61 0c-100.48 0-181.96 81.473-181.96 181.96 0 40.928 13.504 78.659 36.31 109.08l145.65 194.18 145.64-194.18c22.808-30.416 36.31-68.146 36.31-109.08 0-100.48-81.473-181.96-181.96-181.96z" stroke="#fff" stroke-width="16.368" fill="#a08844"/>
 </g>
 <ellipse cx="109.23" cy="190.92" rx="121.94" ry="122.25" fill="#847138" stroke-width="1.6182"/>
 <path d="m64.954 99.269c-10.896 0-19.476 8.5803-19.476 19.476v134.5h113.65v-134.5c0-10.896-8.581-19.476-19.476-19.476zm5.8429 18.331h63.014c3.6661 0 6.9888 3.3225 6.9888 6.9888v37.348c0 3.666-3.3225 6.9888-6.9888 6.9888h-63.014c-3.6661 0-6.9887-3.3225-6.9887-6.9888v-37.348c0-3.6661 3.3225-6.9888 6.9887-6.9888zm98.298 1.0312-5.2701 5.2701 20.966 20.851v30.016c0 4.161 1.7278 8.4873 4.6971 11.457l17.3 17.185v27.839c0 8.2235-6.4415 14.665-14.665 14.665-8.2235 0-14.665-6.4414-14.665-14.665v-18.331c0-9.7447-6.0454-17.774-14.665-20.737v8.0198c4.3957 2.5076 7.3325 7.1955 7.3325 12.716v18.331c0 12.333 9.6638 21.997 21.997 21.997 12.333 0 21.997-9.6638 21.997-21.997v-60.835c0-4.161-1.7278-8.4873-4.6973-11.457zm-127.29 141.94c-2.0237 0-3.6661 1.639-3.6661 3.6662v14.665c0 2.0273 1.6424 3.666 3.6661 3.666h120.98c2.0275 0 3.6661-1.6387 3.6661-3.666v-14.665c0-2.0274-1.6387-3.6662-3.6661-3.6662z" stroke-width="3.6661" fill="#f7f4ec"/>
</svg>
