<svg width="46" height="60" version="1.1" viewBox="0 0 218.77 507.04" xmlns="http://www.w3.org/2000/svg">
 <g transform="translate(-133.22 8.1826)" stroke="#fff" stroke-width="16.368" fill="#a08844">
  <path d="m242.61 0c-100.48 0-181.96 81.473-181.96 181.96 0 40.928 13.504 78.659 36.31 109.08l145.65 194.18 145.64-194.18c22.808-30.416 36.31-68.146 36.31-109.08 0-100.48-81.473-181.96-181.96-181.96z" stroke="#fff" stroke-width="16.368" fill="#a08844"/>
 </g>
 <ellipse cx="109.23" cy="190.92" rx="121.94" ry="122.25" fill="#847138" stroke-width="1.6182"/>
 <path d="m54.98 288.48c-0.7509-0.90423-1.5445-4.8072-1.7634-8.6725l-0.39815-7.0282-12.012-0.66659c-11.57-0.64149-12.149-0.81963-15.74-4.838-6.4778-7.2504-5.5097-11.091 7.843-31.114l11.567-17.346-8.0356-0.64208c-11.547-0.92352-11.36-2.4851 2.8302-23.687l11.665-17.428h-9.4024c-16.609 0-16.495-2.4805 1.3264-28.936 21.091-31.309 21.492-31.315 42.331-0.61019 7.9114 11.657 14.417 22.425 14.455 23.929 0.10963 4.2396-2.4965 5.4635-12.516 5.8777l-9.2592 0.38282 11.591 17.346c6.8151 10.199 11.449 18.406 11.245 19.916-0.30231 2.2367-1.4698 2.619-9.0039 2.9494l-8.6568 0.37977 11.332 16.966c6.2323 9.3314 11.667 18.281 12.077 19.887 1.1736 4.5938-1.3944 11.66-5.129 14.114-2.3454 1.5414-7.0157 2.4364-15.034 2.8791l-11.631 0.642-0.39813 7.0284c-0.21894 3.8646-1.0125 7.7682-1.7634 8.673-0.82009 0.98796-4.3184 1.6448-8.7599 1.6448s-7.9399-0.65687-8.7599-1.6448zm66.203 0.83966c-0.4991-0.49893-0.90757-9.6523-0.90757-20.341v-19.432l-6.4244-10.174c-3.5336-5.5955-6.4248-10.561-6.4248-11.033 0-0.47222 0.86768-2.935 1.9276-5.4721 3.1654-7.5763 2.4928-17.414-1.7306-25.32l-3.6581-6.8458 3.6581-6.9538c2.8528-5.4232 3.6576-8.6666 3.6576-14.738 0-7.657-0.20104-8.0954-12.308-26.805-13.763-21.268-14.109-22.945-5.3333-25.871 4.5006-1.5002 5.5094-2.476 6.2367-6.0329 1.1544-5.6438 4.6669-10.177 11.435-14.759 9.3422-6.3239 20.222-4.7186 28.74 4.2406 2.0426 2.1488 5.5118 4.2808 7.7091 4.7378 5.9173 1.2305 14.006 6.2691 18.765 11.689 6.4801 7.3806 8.9354 13.979 9.0139 24.224l0.0701 8.9943 5.7359 3.4809c14.638 8.8825 20.242 30.005 12.371 46.642-3.5923 7.5928-10.392 14.894-16.437 17.648-2.6092 1.1891-2.9542 2.0283-2.2886 5.5744 1.104 5.8864-2.4557 16.949-7.3582 22.867-4.8398 5.8428-15.159 11.046-21.94 11.065l-4.7799 0.0118-0.35949 16.382-0.35983 16.382-9.0502 0.37226c-4.9777 0.2045-9.4588-0.033-9.9575-0.53552z" stroke-width="1.2849" fill="#f7f4ec"/>
</svg>
