<svg width="60" height="60" version="1.1" viewBox="0 0 12.964 12.964" xmlns="http://www.w3.org/2000/svg">
 <circle cx="6.482" cy="6.482" r="6.35" fill="#562b0a" stroke="#cccccc" stroke-width=".26407"></circle>
 <path d="m2.3079 10.41c-0.081844-0.08187-0.094056-0.48117-0.022604-0.73848 0.058053-0.20909 0.26898-0.4529 0.48869-0.56503 0.15133-0.077229 0.26522-0.085834 1.1355-0.085834 0.92733 0 0.9754 0.00536 1.1622 0.1029 0.10716 0.056702 0.25308 0.18555 0.32429 0.28665 0.11258 0.1598 0.13203 0.23279 0.1492 0.56006 0.025329 0.48217 0.00455 0.50921-0.39457 0.50921h-0.30403v-0.27751c0-0.39796-0.15005-0.58281-0.32839-0.40449-0.049812 0.04988-0.069507 0.1562-0.069507 0.37575v0.30626h-0.35362v-0.30625c0-0.21957-0.019698-0.32596-0.069506-0.37575-0.17833-0.17831-0.32838 0.0091-0.32838 0.40449v0.27752h-0.35362v-0.32998c0-0.28477-0.012162-0.33651-0.08841-0.37729-0.062777-0.03392-0.11401-0.03392-0.17682 0-0.076324 0.04105-0.088418 0.09255-0.088418 0.37729v0.32998h-0.30628c-0.2195 0-0.32597-0.01952-0.37574-0.07009zm3.6994 0.01415c-0.02401-0.030271-0.057138-0.22433-0.073616-0.43089-0.049176-0.61674-0.29303-1.0106-0.77004-1.2438-0.18613-0.090994-0.28392-0.10266-0.98933-0.11804-0.51937-0.011322-0.79647-0.034226-0.82349-0.06806-0.023459-0.029378-0.027654-0.23839-0.0098929-0.49304l0.030829-0.44205 0.53949-0.55258c0.46768-0.47901 0.53597-0.56727 0.51293-0.66309-0.0637-0.26501-0.40395-0.67801-0.82644-1.0031-0.1398-0.10758-0.25418-0.21801-0.25418-0.24539 0-0.086445 0.57357-1.3188 0.82826-1.7796 0.7537-1.3635 1.26-1.7462 2.3104-1.7462 1.2475 0 1.8461 0.61104 2.9104 2.9709 0.25456 0.56445 0.2558 0.6121 0.02007 0.76633-0.21389 0.13991-0.57994 0.50902-0.71577 0.7217-0.24098 0.3774-0.24736 0.35979 0.35505 0.97835l0.53813 0.55258 0.03215 0.44205c0.018519 0.25665 0.014964 0.46343-0.00874 0.49304-0.02693 0.033873-0.30414 0.056743-0.82348 0.068028-0.71593 0.015609-0.8012 0.026089-0.99914 0.12267-0.47222 0.23044-0.71813 0.63172-0.76318 1.2453-0.014965 0.2033-0.046727 0.39455-0.070759 0.42492-0.029486 0.03782-0.18253 0.05487-0.47481 0.05487-0.29223 0-0.4453-0.01792-0.4749-0.05487zm0.56621-0.34416c0.075647-0.04068 0.085517-0.09594 0.085517-0.48262 0-0.52411-0.016176-0.57675-0.17682-0.57675-0.16066 0-0.17682 0.052763-0.17682 0.57608 0 0.36891 0.01192 0.44322 0.077349 0.48131 0.097058 0.0567 0.089016 0.05658 0.19078 0.0029zm2.2103-2.2102c0.11127-0.059547 0.11127-0.24678 0-0.30633-0.11764-0.062963-4.4855-0.062963-4.6032 0-0.10702 0.057241-0.11201 0.24385-0.0082 0.30434 0.10716 0.062373 4.4951 0.06434 4.6114 0.00204zm-1.9069-1.1368c0.21613-0.11021 0.30144-0.25221 0.37839-0.62987 0.050329-0.247 0.09627-0.35691 0.18016-0.43101 0.18265-0.16133 0.29437-0.13003 0.50348 0.14103 0.27369 0.35475 0.29316 0.36523 0.37716 0.2028 0.039148-0.075709 0.17944-0.26526 0.31175-0.42123l0.24057-0.28358-0.34215-0.012902c-0.31913-0.012035-0.34311-0.019758-0.35661-0.1148-0.02739-0.19321 0.056421-0.22965 0.52822-0.22965 0.24015 0 0.43664-0.013169 0.43664-0.029323 0-0.076833-0.76825-1.5792-0.95637-1.8701l-0.21342-0.3301-0.075617 0.61747c-0.16669 1.3612-0.40621 1.9637-0.83784 2.1076-0.025045 0.0083503-0.088741 0.22353-0.14155 0.47818l-0.096016 0.463h-0.66309l-0.051926-0.22103c-0.028558-0.12157-0.074312-0.3334-0.10167-0.47076-0.04208-0.21123-0.069184-0.25779-0.17579-0.30194-0.069321-0.028714-0.16892-0.097848-0.22132-0.15363-0.19086-0.20316-0.42438-1.0933-0.54532-2.0786l-0.054131-0.44095-0.23747 0.3702c-0.20984 0.32713-0.93118 1.7401-0.9326 1.8268-2.959e-4 0.018248 0.19594 0.033109 0.43608 0.033109 0.47182 0 0.5556 0.036414 0.52821 0.22965-0.013443 0.095049-0.037479 0.10277-0.35661 0.11481l-0.34215 0.012927 0.24057 0.28358c0.13232 0.15598 0.27392 0.34806 0.31467 0.42687l0.074092 0.14329 0.1299-0.15243c0.44802-0.52573 0.41135-0.49768 0.55375-0.42404 0.18686 0.096629 0.2189 0.15063 0.27913 0.47053 0.080406 0.42699 0.16122 0.57254 0.3708 0.66773 0.23211 0.10542 0.61786 0.10841 0.81802 6e-3zm0.57864 3.6811c-0.036376-0.043789-0.04909-0.18786-0.038584-0.43832 0.013826-0.3297 0.031052-0.3948 0.14825-0.5612 0.072932-0.10356 0.22029-0.23452 0.32745-0.29111 0.18677-0.098595 0.23484-0.10291 1.1622-0.10291 1.0846 0 1.1702 0.019358 1.4408 0.32776 0.16317 0.18583 0.22974 0.40034 0.2301 0.74115 3.24e-4 0.34089-0.0553 0.38988-0.445 0.38988h-0.30627v-0.32998c0-0.28477-0.01216-0.33651-0.088411-0.37728-0.06262-0.03385-0.11401-0.03385-0.17683 0-0.076319 0.04106-0.088413 0.09255-0.088413 0.37728v0.32998h-0.35366v-0.27751c0-0.39796-0.15005-0.58279-0.32839-0.40449-0.049812 0.04995-0.069506 0.15621-0.069506 0.37575v0.30626h-0.35361v-0.30626c0-0.21953-0.019698-0.32596-0.069506-0.37575-0.17833-0.1783-0.32839 0.0091-0.32839 0.40449v0.27751h-0.30399c-0.21424 0-0.32003-0.01895-0.35823-0.0658z" stroke-width=".044205" fill="#cccccc"/>
</svg>
