<svg width="60" height="60" version="1.1" viewBox="0 0 12.964 12.964" xmlns="http://www.w3.org/2000/svg">
 <circle cx="6.482" cy="6.482" r="6.35" fill="#fff" stroke="#000" stroke-width=".26407"></circle>
 <g transform="matrix(.80082 0 0 .80082 3.3516 .31376)">
  <g stroke-width=".024805">
   <path d="m7.2579 10.307h-1.8606v-0.74424h-2.9768v0.74424h-1.8606v3.7458h6.6978zm-2.2326 2.2326h-2.2326v-0.74424h2.2326z"/>
   <path d="m6.2761 5.4919-1.0055-0.25182c0.31539-0.33943 0.4989-0.78891 0.4989-1.2591v-0.66459c0-1.0198-0.77998-1.9638-1.8533-1.9638-1.0285 0-1.8678 0.85033-1.8678 1.8842v0.74424c0 0.47022 0.18352 0.91971 0.499 1.2591l-1.0056 0.25145c-1.0244 0.25589-0.99849 1.1541-0.98182 1.8762 0.002519 0.109 0 0.70644 0 0.70644h0.96225l0.74424 0.74424h3.2849l0.74414-0.74424h0.96225s-0.00252-0.59745 0-0.70644c0.016762-0.72204 0.042535-1.6203-0.98182-1.8758z"/>
  </g>
 </g>
</svg>
