<svg width="60" height="60" version="1.1" viewBox="0 0 12.964 12.964" xmlns="http://www.w3.org/2000/svg">
 <circle cx="6.482" cy="6.482" r="6.35" fill="#fff" stroke="#ffd42a" stroke-width=".26407"></circle>
 <path d="m12.029 7.4855-1.0261-1.004 1.0261-1.004c0.14886-0.13883 0.1984-0.31233 0.14886-0.52055-0.05947-0.20327-0.18835-0.32968-0.38678-0.37924l-1.3981-0.357 0.39417-1.3832c0.05936-0.20319 0.01247-0.37682-0.14135-0.52055-0.1437-0.15373-0.31725-0.20083-0.52058-0.14134l-1.383 0.39417-0.35708-1.3981c-0.049568-0.20333-0.17579-0.32971-0.37901-0.37927-0.20343-0.054595-0.3769-0.007397-0.52058 0.14128l-1.004 1.0337-1.004-1.0337c-0.14378-0.15368-0.31728-0.20077-0.52055-0.14128-0.20327 0.049568-0.32968 0.17595-0.37924 0.37927l-0.357 1.3981-1.3832-0.39417c-0.20327-0.059518-0.37678-0.012398-0.52055 0.14134-0.1537 0.14373-0.20083 0.31723-0.14128 0.52055l0.39412 1.3832-1.3981 0.357c-0.1983 0.049568-0.32723 0.17595-0.38667 0.37924-0.049646 0.20822 0 0.38172 0.14871 0.52055l1.0262 1.004-1.0262 1.004c-0.14871 0.13878-0.19827 0.31233-0.14871 0.52045 0.05944 0.20333 0.18837 0.32971 0.38667 0.3793l1.3981 0.3569-0.39412 1.3832c-0.059544 0.20325-0.012425 0.3767 0.14128 0.52055 0.14378 0.15365 0.31728 0.20065 0.52055 0.1412l1.3832-0.39399 0.357 1.3981c0.049568 0.20325 0.17595 0.33213 0.37924 0.3866 0.20822 0.04955 0.38174 0 0.52055-0.14868l1.004-1.0263 1.004 1.0263c0.099135 0.10895 0.22551 0.16348 0.37912 0.16348 0.034852 0 0.081841-0.0049 0.14149-0.01477 0.20322-0.05954 0.32953-0.18842 0.37909-0.38669l0.3569-1.398 1.3831 0.39409c0.20335 0.05934 0.3769 0.01229 0.52058-0.14138 0.15373-0.14386 0.20083-0.31733 0.14135-0.52055l-0.39406-1.3832 1.398-0.35682c0.1985-0.049541 0.32728-0.17605 0.38678-0.37927 0.04957-0.2082 0-0.38174-0.14894-0.52055z" fill="#ffd42a" stroke-width=".026047"/>
 <g transform="matrix(.025408 0 0 .025408 .58083 .29702)" fill="#fff">
  <path d="m464.65 167.76c-0.824-3.273-2.996-6.037-5.969-7.633-2.965-1.586-6.47-1.855-9.65-0.738-27.88 9.795-70.896 16.098-119.28 16.098-11.762 0-23.098-0.449-34.089-1.156-5.683 25.676-14.764 49.252-26.363 70.016 0.564-0.023 1.103-0.115 1.672-0.115 15.034 0 27.218-1.254 27.218 8.873s-12.185 27.803-27.218 27.803c-8.757 0-16.467-2.834-21.442-7.162-15.025 18.654-32.578 33.363-51.909 43.09 21.795 73.361 72.751 124.82 132.13 124.82 79.219 0 143.44-91.584 143.44-204.56-1e-3 -24.37-3.044-47.69-8.542-69.341zm-77.733 214.17c-0.254 1.078-1.056 1.957-2.11 2.303-1.056 0.353-2.218 0.131-3.066-0.586-11.174-9.389-30.182-15.627-51.985-15.627-21.805 0-40.813 6.238-51.986 15.627-0.849 0.709-2.012 0.932-3.066 0.586-1.055-0.354-1.856-1.225-2.11-2.303-0.925-3.936-1.494-7.994-1.494-12.215 0-32.395 26.263-58.656 58.657-58.656s58.655 26.262 58.655 58.656c-2e-3 4.221-0.571 8.28-1.495 12.215zm1.617-101.02c-15.034 0-27.218-17.676-27.218-27.803s12.185-8.873 27.218-8.873 27.218 8.211 27.218 18.338c-1e-3 10.127-12.185 18.338-27.218 18.338z"/>
  <path d="m286.87 109.92c0-24.367-3.043-47.688-8.541-69.338-0.824-3.273-2.996-6.039-5.969-7.633-1.756-0.939-3.705-1.416-5.669-1.416-1.341 0-2.688 0.221-3.981 0.678-27.88 9.795-70.895 16.096-119.28 16.096-48.382 0-91.397-6.301-119.28-16.096-1.286-0.457-2.626-0.678-3.966-0.678-1.963 0-3.921 0.482-5.685 1.424-2.965 1.594-5.144 4.359-5.969 7.625-5.498 21.651-8.541 44.971-8.541 69.338 0 112.98 64.217 204.56 143.44 204.56 79.219 0 143.44-91.582 143.44-204.56zm-229.44 25.424c0-10.129 12.185-18.338 27.219-18.338 15.033 0 27.218 17.674 27.218 27.803 0 10.127-12.185 8.873-27.218 8.873-15.034 0-27.219-8.211-27.219-18.338zm85.999 140.46c-32.395 0-58.656-26.262-58.656-58.654 0-4.221 0.569-8.281 1.493-12.217 0.254-1.076 1.056-1.947 2.11-2.303 1.056-0.346 2.218-0.123 3.066 0.586 11.174 9.389 30.182 15.627 51.986 15.627s40.812-6.238 51.985-15.627c0.849-0.717 2.011-0.939 3.066-0.586 1.055 0.348 1.856 1.227 2.11 2.303 0.924 3.936 1.494 7.996 1.494 12.217 1e-3 32.392-26.261 58.654-58.654 58.654zm31.56-131c0-10.129 12.185-27.803 27.219-27.803 15.033 0 27.218 8.209 27.218 18.338 0 10.127-12.185 18.338-27.218 18.338-15.034 0-27.219 1.254-27.219-8.873z"/>
 </g>
</svg>
