<svg width="60" height="60" version="1.1" viewBox="0 0 12.964 12.964" xmlns="http://www.w3.org/2000/svg">
 <circle cx="6.482" cy="6.482" r="6.35" fill="#fff" stroke="#56db40" stroke-width=".26407"></circle>
 <path d="m12.029 7.4855-1.0261-1.004 1.0261-1.004c0.14886-0.13883 0.1984-0.31233 0.14886-0.52055-0.05947-0.20327-0.18835-0.32968-0.38678-0.37924l-1.3981-0.357 0.39417-1.3832c0.05936-0.20319 0.01247-0.37682-0.14135-0.52055-0.1437-0.15373-0.31725-0.20083-0.52058-0.14134l-1.383 0.39417-0.35708-1.3981c-0.049568-0.20333-0.17579-0.32971-0.37901-0.37927-0.20343-0.054595-0.3769-0.0073974-0.52058 0.14128l-1.004 1.0337-1.004-1.0337c-0.14378-0.15368-0.31728-0.20077-0.52055-0.14128-0.20327 0.049568-0.32968 0.17595-0.37924 0.37927l-0.357 1.3981-1.3832-0.39417c-0.20327-0.059518-0.37678-0.012398-0.52055 0.14134-0.1537 0.14373-0.20083 0.31723-0.14128 0.52055l0.39412 1.3832-1.3981 0.357c-0.1983 0.049568-0.32723 0.17595-0.38667 0.37924-0.049646 0.20822 0 0.38172 0.14871 0.52055l1.0262 1.004-1.0262 1.004c-0.14871 0.13878-0.19827 0.31233-0.14871 0.52045 0.05944 0.20333 0.18837 0.32971 0.38667 0.3793l1.3981 0.3569-0.39412 1.3832c-0.059544 0.20325-0.012425 0.3767 0.14128 0.52055 0.14378 0.15365 0.31728 0.20065 0.52055 0.1412l1.3832-0.39399 0.357 1.3981c0.049568 0.20325 0.17595 0.33213 0.37924 0.3866 0.20822 0.04955 0.38174 0 0.52055-0.14868l1.004-1.0263 1.004 1.0263c0.099135 0.10895 0.22551 0.16348 0.37912 0.16348 0.034852 0 0.081841-0.0049 0.14149-0.01477 0.20322-0.05954 0.32953-0.18842 0.37909-0.38669l0.3569-1.398 1.3831 0.39409c0.20335 0.05934 0.3769 0.01229 0.52058-0.14138 0.15373-0.14386 0.20083-0.31733 0.14135-0.52055l-0.39406-1.3832 1.398-0.35682c0.1985-0.049541 0.32728-0.17605 0.38678-0.37927 0.04957-0.2082 0-0.38174-0.14894-0.52055z" fill="#56db40" stroke-width=".026047"/>
 <g transform="matrix(.022877 0 0 .022877 3.0843 3.0848)" fill="#fff">
  <g fill="#fff">
   <g fill="#fff">
    <path d="m45.432 35.049h-0.025c-2.809 0-5.451 1.095-7.446 3.085-2.017 2.012-3.128 4.691-3.128 7.543v159.36c0 5.844 4.773 10.61 10.641 10.625 24.738 0.059 66.184 5.215 94.776 35.136v-166.78c0-1.981-0.506-3.842-1.461-5.382-23.467-37.792-68.563-43.534-93.357-43.592z"/>
    <path d="m262.17 205.04v-159.37c0-2.852-1.111-5.531-3.128-7.543-1.995-1.99-4.639-3.085-7.445-3.085h-0.026c-24.793 0.059-69.889 5.801-93.357 43.593-0.955 1.54-1.46 3.401-1.46 5.382v166.78c28.592-29.921 70.038-35.077 94.776-35.136 5.867-0.015 10.64-4.781 10.64-10.624z"/>
    <path d="m286.37 71.801h-7.706v133.24c0 14.921-12.157 27.088-27.101 27.125-20.983 0.05-55.581 4.153-80.084 27.344 42.378-10.376 87.052-3.631 112.51 2.171 3.179 0.724 6.464-0.024 9.011-2.054 2.538-2.025 3.994-5.052 3.994-8.301v-168.9c1e-3 -5.859-4.767-10.626-10.626-10.626z"/>
    <path d="m18.332 205.04v-133.24h-7.706c-5.858 0-10.626 4.767-10.626 10.626v168.9c0 3.25 1.456 6.276 3.994 8.301 2.545 2.029 5.827 2.78 9.011 2.054 25.46-5.803 70.135-12.547 112.51-2.171-24.502-23.19-59.1-27.292-80.083-27.342-14.943-0.036-27.101-12.203-27.101-27.124z"/>
   </g>
  </g>
 </g>
</svg>
