<svg width="46" height="60" version="1.1" viewBox="0 0 218.77 507.04" xmlns="http://www.w3.org/2000/svg">
 <g transform="translate(-133.22 8.1826)" stroke="#fff" stroke-width="16.368" fill="#0e4779">
  <path d="m242.61 0c-100.48 0-181.96 81.473-181.96 181.96 0 40.928 13.504 78.659 36.31 109.08l145.65 194.18 145.64-194.18c22.808-30.416 36.31-68.146 36.31-109.08 0-100.48-81.473-181.96-181.96-181.96z" stroke="#b7d9f7" stroke-width="16.368" fill="#0e4779"/>
 </g>
 <ellipse cx="109.23" cy="190.92" rx="121.94" ry="122.25" fill="#0a3256" stroke-width="1.6182"/>
 <g transform="matrix(.61622 0 0 .61622 18.175 99.866)" fill="#b7d9f7">
  <path d="m147.76 44.074c12.801 0 23.858-8.162 27.83-20.169-7.578 2.086-17.237 3.345-27.83 3.345-10.592 0-20.251-1.259-27.828-3.345 3.97 12.006 15.026 20.169 27.828 20.169z" fill="#b7d9f7"/>
  <path d="m295.16 58.839c-0.608-1.706-1.873-3.109-3.521-3.873l-56.343-26.01c-11.985-4.06-24.195-7.267-36.524-9.611-0.434-0.085-0.866-0.126-1.292-0.126-3.052 0-5.785 2.107-6.465 5.197-4.502 19.82-22.047 34.659-43.251 34.659-21.203 0-38.749-14.838-43.25-34.659-0.688-3.09-3.416-5.197-6.466-5.197-0.426 0-0.858 0.041-1.292 0.126-12.328 2.344-24.538 5.551-36.542 9.611l-56.323 26.009c-1.658 0.764-2.932 2.167-3.511 3.873-0.599 1.726-0.491 3.589 0.353 5.217l24.46 48.272c1.145 2.291 3.474 3.666 5.938 3.666 0.636 0 1.281-0.092 1.917-0.283l27.167-8.052v161.97c0 3.678 3.001 6.678 6.689 6.678h161.72c3.678 0 6.67-3.001 6.67-6.678v-161.97l27.186 8.052c0.636 0.191 1.28 0.283 1.915 0.283 2.459 0 4.779-1.375 5.94-3.666l24.469-48.272c0.824-1.629 0.942-3.492 0.353-5.218z" fill="#b7d9f7"/>
 </g>
</svg>
