<svg width="46" height="60" version="1.1" viewBox="0 0 218.77 507.04" xmlns="http://www.w3.org/2000/svg">
 <g transform="translate(-133.22 8.1826)" stroke="#fff" stroke-width="16.368" fill="#0e4779">
  <path d="m242.61 0c-100.48 0-181.96 81.473-181.96 181.96 0 40.928 13.504 78.659 36.31 109.08l145.65 194.18 145.64-194.18c22.808-30.416 36.31-68.146 36.31-109.08 0-100.48-81.473-181.96-181.96-181.96z" stroke="#b7d9f7" stroke-width="16.368" fill="#0e4779"/>
 </g>
 <ellipse cx="109.23" cy="190.92" rx="121.94" ry="122.25" fill="#0a3256" stroke-width="1.6182"/>
 <path d="m101.55 99.513v20.755c20.732 0 13.77 6.9588 27.595 6.9588h6.9588v-20.756h-6.9588c-13.821 0-6.8626-6.9586-27.595-6.9586zm-53.75 37.673c-2.1193 0-3.8393 1.7199-3.8393 3.8392v11.518h130.53v-11.518c0-2.1194-1.7161-3.8392-3.8391-3.8392zm-30.714 23.036c-2.1193 0-3.8393 1.7163-3.8393 3.8392v80.625c0 2.1235 1.72 3.8395 3.8393 3.8395h184.29c2.1231 0 3.8393-1.716 3.8393-3.8395v-80.625c0-2.1229-1.7161-3.8392-3.8393-3.8392zm19.197 19.197h11.518v19.197h-11.518zm26.875 0h11.518v19.197h-11.518zm26.875 0h11.518v19.197h-11.518zm26.875 0h11.518v19.197h-11.518zm26.875 0h11.518v19.197h-11.518zm26.875 0h11.518v19.197h-11.518zm-134.38 30.714h11.518v19.197h-11.518zm26.875 0h11.518v19.197h-11.518zm26.875 0h11.518v19.197h-11.518zm26.875 0h11.518v19.197h-11.518zm26.875 0h11.518v19.197h-11.518zm26.875 0h11.518v19.197h-11.518z" stroke-width="3.8393" fill="#b7d9f7"/>
</svg>
