<svg width="46" height="60" version="1.1" viewBox="0 0 218.77 507.04" xmlns="http://www.w3.org/2000/svg">
 <g transform="translate(-133.22 8.1826)" stroke="#fff" stroke-width="16.368" fill="#0e4779">
  <path d="m242.61 0c-100.48 0-181.96 81.473-181.96 181.96 0 40.928 13.504 78.659 36.31 109.08l145.65 194.18 145.64-194.18c22.808-30.416 36.31-68.146 36.31-109.08 0-100.48-81.473-181.96-181.96-181.96z" stroke="#b7d9f7" stroke-width="16.368" fill="#0e4779"/>
 </g>
 <ellipse cx="109.23" cy="190.92" rx="121.94" ry="122.25" fill="#0a3256" stroke-width="1.6182"/>
 <g transform="matrix(.37446 0 0 .37446 59.678 108.1)" fill="#b7d9f7">
  <path d="m267.34 326.16h-75.008v-30.004h-120.01v30.004h-75.008v151.01h270.02zm-90.008 90.008h-90.008v-30.004h90.008z" fill="#b7d9f7"/>
  <path d="m227.76 132.05-40.535-10.152c12.715-13.684 20.113-31.805 20.113-50.762v-26.793c0-41.113-31.445-79.172-74.715-79.172-41.465 0-75.301 34.281-75.301 75.961v30.004c0 18.957 7.3984 37.078 20.117 50.762l-40.539 10.137c-41.297 10.316-40.254 46.527-39.582 75.637 0.10156 4.3945 0 28.48 0 28.48h38.793l30.004 30.004h132.43l30-30.004h38.793s-0.10156-24.086 0-28.48c0.67578-29.109 1.7148-65.324-39.582-75.621z" fill="#b7d9f7"/>
 </g>
</svg>
