<svg width="46" height="60" version="1.1" viewBox="0 0 218.77 507.04" xmlns="http://www.w3.org/2000/svg">
 <g transform="translate(-133.22 8.1826)" stroke="#fff" stroke-width="16.368" fill="#0e4779">
  <path d="m242.61 0c-100.48 0-181.96 81.473-181.96 181.96 0 40.928 13.504 78.659 36.31 109.08l145.65 194.18 145.64-194.18c22.808-30.416 36.31-68.146 36.31-109.08 0-100.48-81.473-181.96-181.96-181.96z" stroke="#b7d9f7" stroke-width="16.368" fill="#0e4779"/>
 </g>
 <ellipse cx="109.23" cy="190.92" rx="121.94" ry="122.25" fill="#0a3256" stroke-width="1.6182"/>
 <g transform="matrix(2.7033 0 0 2.7033 -19.379 41.992)" fill="#b7d9f7">
  <polygon points="47.879 49.447 34.692 24.291 16.637 69.736 11.971 69.736 11.971 73.386 37.533 73.386 37.533 69.736 32.461 69.736 37.533 55.533 47.879 73.386 57.82 55.533 62.891 69.736 57.82 69.736 57.82 73.386 83.178 73.386 83.178 69.736 78.785 69.736 61.207 24.505 60.608 24.504"></polygon>
 </g>
</svg>
